  0
SECTION
  2
HEADER
  9
$ACADVER
  1
AC1024
  9
$ACADMAINTVER
 70
6
  9
$DWGCODEPAGE
  3
ANSI_1252
  9
$LASTSAVEDBY
  1
ezdxf
  9
$INSBASE
 10
0.0
 20
0.0
 30
0.0
  9
$EXTMIN
 10
-100
 20
-100
 30
-100
  9
$EXTMAX
 10
100
 20
100
 30
100
  9
$LIMMIN
 10
0.0
 20
0.0
  9
$LIMMAX
 10
420.0
 20
297.0
  9
$ORTHOMODE
 70
0
  9
$REGENMODE
 70
1
  9
$FILLMODE
 70
1
  9
$QTEXTMODE
 70
0
  9
$MIRRTEXT
 70
1
  9
$LTSCALE
 40
1.0
  9
$ATTMODE
 70
1
  9
$TEXTSIZE
 40
2.5
  9
$TRACEWID
 40
1.0
  9
$TEXTSTYLE
  7
Standard
  9
$CLAYER
  8
0
  9
$CELTYPE
  6
ByLayer
  9
$CECOLOR
 62
256
  9
$CELTSCALE
 40
1.0
  9
$DISPSILH
 70
0
  9
$DIMSCALE
 40
1.0
  9
$DIMASZ
 40
2.5
  9
$DIMEXO
 40
0.625
  9
$DIMDLI
 40
3.75
  9
$DIMRND
 40
0.0
  9
$DIMDLE
 40
0.0
  9
$DIMEXE
 40
1.25
  9
$DIMTP
 40
0.0
  9
$DIMTM
 40
0.0
  9
$DIMTXT
 40
2.5
  9
$DIMCEN
 40
2.5
  9
$DIMTSZ
 40
0.0
  9
$DIMTOL
 70
0
  9
$DIMLIM
 70
0
  9
$DIMTIH
 70
0
  9
$DIMTOH
 70
0
  9
$DIMSE1
 70
0
  9
$DIMSE2
 70
0
  9
$DIMTAD
 70
1
  9
$DIMZIN
 70
8
  9
$DIMBLK
  1

  9
$DIMASO
 70
1
  9
$DIMSHO
 70
1
  9
$DIMPOST
  1

  9
$DIMAPOST
  1

  9
$DIMALT
 70
0
  9
$DIMALTD
 70
3
  9
$DIMALTF
 40
0.03937007874
  9
$DIMLFAC
 40
1.0
  9
$DIMTOFL
 70
1
  9
$DIMTVP
 40
0.0
  9
$DIMTIX
 70
0
  9
$DIMSOXD
 70
0
  9
$DIMSAH
 70
0
  9
$DIMBLK1
  1

  9
$DIMBLK2
  1

  9
$DIMSTYLE
  2
ISO-25
  9
$DIMCLRD
 70
0
  9
$DIMCLRE
 70
0
  9
$DIMCLRT
 70
0
  9
$DIMTFAC
 40
1.0
  9
$DIMGAP
 40
0.625
  9
$DIMJUST
 70
0
  9
$DIMSD1
 70
0
  9
$DIMSD2
 70
0
  9
$DIMTOLJ
 70
0
  9
$DIMTZIN
 70
8
  9
$DIMALTZ
 70
0
  9
$DIMALTTZ
 70
0
  9
$DIMUPT
 70
0
  9
$DIMDEC
 70
2
  9
$DIMTDEC
 70
2
  9
$DIMALTU
 70
2
  9
$DIMALTTD
 70
3
  9
$DIMTXSTY
  7
Standard
  9
$DIMAUNIT
 70
0
  9
$DIMADEC
 70
0
  9
$DIMALTRND
 40
0.0
  9
$DIMAZIN
 70
0
  9
$DIMDSEP
 70
44
  9
$DIMATFIT
 70
3
  9
$DIMFRAC
 70
0
  9
$DIMLDRBLK
  1

  9
$DIMLUNIT
 70
2
  9
$DIMLWD
 70
-2
  9
$DIMLWE
 70
-2
  9
$DIMTMOVE
 70
0
  9
$DIMFXL
 40
1.0
  9
$DIMFXLON
 70
0
  9
$DIMJOGANG
 40
0.785398163397
  9
$DIMTFILL
 70
0
  9
$DIMTFILLCLR
 70
0
  9
$DIMARCSYM
 70
0
  9
$DIMLTYPE
  6

  9
$DIMLTEX1
  6

  9
$DIMLTEX2
  6

  9
$DIMTXTDIRECTION
 70
0
  9
$LUNITS
 70
2
  9
$LUPREC
 70
4
  9
$SKETCHINC
 40
1.0
  9
$FILLETRAD
 40
10.0
  9
$AUNITS
 70
0
  9
$AUPREC
 70
2
  9
$MENU
  1
.
  9
$ELEVATION
 40
0.0
  9
$PELEVATION
 40
0.0
  9
$THICKNESS
 40
0.0
  9
$LIMCHECK
 70
0
  9
$CHAMFERA
 40
0.0
  9
$CHAMFERB
 40
0.0
  9
$CHAMFERC
 40
0.0
  9
$CHAMFERD
 40
0.0
  9
$SKPOLY
 70
0
  9
$TDCREATE
 40
2459297.829502315
  9
$TDUCREATE
 40
2458532.153996898
  9
$TDUPDATE
 40
2459297.829502315
  9
$TDUUPDATE
 40
2458532.1544311
  9
$TDINDWG
 40
0.0
  9
$TDUSRTIMER
 40
0.0
  9
$USRTIMER
 70
1
  9
$ANGBASE
 50
0.0
  9
$ANGDIR
 70
0
  9
$PDMODE
 70
0
  9
$PDSIZE
 40
0.0
  9
$PLINEWID
 40
0.0
  9
$SPLFRAME
 70
0
  9
$SPLINETYPE
 70
6
  9
$SPLINESEGS
 70
8
  9
$HANDSEED
  5
39
  9
$SURFTAB1
 70
6
  9
$SURFTAB2
 70
6
  9
$SURFTYPE
 70
6
  9
$SURFU
 70
6
  9
$SURFV
 70
6
  9
$UCSBASE
  2

  9
$UCSNAME
  2

  9
$UCSORG
 10
0.0
 20
0.0
 30
0.0
  9
$UCSXDIR
 10
1.0
 20
0.0
 30
0.0
  9
$UCSYDIR
 10
0.0
 20
1.0
 30
0.0
  9
$UCSORTHOREF
  2

  9
$UCSORTHOVIEW
 70
0
  9
$UCSORGTOP
 10
0.0
 20
0.0
 30
0.0
  9
$UCSORGBOTTOM
 10
0.0
 20
0.0
 30
0.0
  9
$UCSORGLEFT
 10
0.0
 20
0.0
 30
0.0
  9
$UCSORGRIGHT
 10
0.0
 20
0.0
 30
0.0
  9
$UCSORGFRONT
 10
0.0
 20
0.0
 30
0.0
  9
$UCSORGBACK
 10
0.0
 20
0.0
 30
0.0
  9
$PUCSBASE
  2

  9
$PUCSNAME
  2

  9
$PUCSORG
 10
0.0
 20
0.0
 30
0.0
  9
$PUCSXDIR
 10
1.0
 20
0.0
 30
0.0
  9
$PUCSYDIR
 10
0.0
 20
1.0
 30
0.0
  9
$PUCSORTHOREF
  2

  9
$PUCSORTHOVIEW
 70
0
  9
$PUCSORGTOP
 10
0.0
 20
0.0
 30
0.0
  9
$PUCSORGBOTTOM
 10
0.0
 20
0.0
 30
0.0
  9
$PUCSORGLEFT
 10
0.0
 20
0.0
 30
0.0
  9
$PUCSORGRIGHT
 10
0.0
 20
0.0
 30
0.0
  9
$PUCSORGFRONT
 10
0.0
 20
0.0
 30
0.0
  9
$PUCSORGBACK
 10
0.0
 20
0.0
 30
0.0
  9
$USERI1
 70
0
  9
$USERI2
 70
0
  9
$USERI3
 70
0
  9
$USERI4
 70
0
  9
$USERI5
 70
0
  9
$USERR1
 40
0.0
  9
$USERR2
 40
0.0
  9
$USERR3
 40
0.0
  9
$USERR4
 40
0.0
  9
$USERR5
 40
0.0
  9
$WORLDVIEW
 70
1
  9
$SHADEDGE
 70
3
  9
$SHADEDIF
 70
70
  9
$TILEMODE
 70
1
  9
$MAXACTVP
 70
64
  9
$PINSBASE
 10
0.0
 20
0.0
 30
0.0
  9
$PLIMCHECK
 70
0
  9
$PEXTMIN
 10
1e+20
 20
1e+20
 30
1e+20
  9
$PEXTMAX
 10
-1e+20
 20
-1e+20
 30
-1e+20
  9
$PLIMMIN
 10
0.0
 20
0.0
  9
$PLIMMAX
 10
420.0
 20
297.0
  9
$UNITMODE
 70
0
  9
$VISRETAIN
 70
1
  9
$PLINEGEN
 70
0
  9
$PSLTSCALE
 70
1
  9
$TREEDEPTH
 70
3020
  9
$CMLSTYLE
  2
Standard
  9
$CMLJUST
 70
0
  9
$CMLSCALE
 40
20.0
  9
$PROXYGRAPHICS
 70
1
  9
$MEASUREMENT
 70
1
  9
$CELWEIGHT
370
-1
  9
$ENDCAPS
280
0
  9
$JOINSTYLE
280
0
  9
$LWDISPLAY
290
0
  9
$INSUNITS
 70
6
  9
$HYPERLINKBASE
  1

  9
$STYLESHEET
  1

  9
$XEDIT
290
1
  9
$CEPSNTYPE
380
0
  9
$PSTYLEMODE
290
1
  9
$FINGERPRINTGUID
  2
4072CCE6-8C4C-11EB-BD8B-F06E0BD2286F
  9
$VERSIONGUID
  2
4072CCE8-8C4C-11EB-A7A8-F06E0BD2286F
  9
$EXTNAMES
290
1
  9
$PSVPSCALE
 40
0.0
  9
$OLESTARTUP
290
0
  9
$SORTENTS
280
127
  9
$INDEXCTL
280
0
  9
$HIDETEXT
280
1
  9
$XCLIPFRAME
280
2
  9
$HALOGAP
280
0
  9
$OBSCOLOR
 70
257
  9
$OBSLTYPE
280
0
  9
$INTERSECTIONDISPLAY
280
0
  9
$INTERSECTIONCOLOR
 70
257
  9
$DIMASSOC
280
2
  9
$PROJECTNAME
  1

  9
$CAMERADISPLAY
290
0
  9
$LENSLENGTH
 40
50.0
  9
$CAMERAHEIGHT
 40
0.0
  9
$STEPSPERSEC
 40
24.0
  9
$STEPSIZE
 40
100.0
  9
$3DDWFPREC
 40
2.0
  9
$PSOLWIDTH
 40
0.005
  9
$PSOLHEIGHT
 40
0.08
  9
$LOFTANG1
 40
1.570796326795
  9
$LOFTANG2
 40
1.570796326795
  9
$LOFTMAG1
 40
0.0
  9
$LOFTMAG2
 40
0.0
  9
$LOFTPARAM
 70
7
  9
$LOFTNORMALS
280
1
  9
$LATITUDE
 40
37.795
  9
$LONGITUDE
 40
-122.394
  9
$NORTHDIRECTION
 40
0.0
  9
$TIMEZONE
 70
-8000
  9
$LIGHTGLYPHDISPLAY
280
1
  9
$TILEMODELIGHTSYNCH
280
1
  9
$CMATERIAL
347
20
  9
$SOLIDHIST
280
0
  9
$SHOWHIST
280
1
  9
$DWFFRAME
280
2
  9
$DGNFRAME
280
2
  9
$REALWORLDSCALE
290
1
  9
$INTERFERECOLOR
 62
256
  9
$CSHADOW
280
0
  9
$SHADOWPLANELOCATION
 40
0.0
  0
ENDSEC
  0
SECTION
  2
CLASSES
  0
CLASS
  1
ACDBDICTIONARYWDFLT
  2
AcDbDictionaryWithDefault
  3
ObjectDBX Classes
 90
0
 91
0
280
0
281
0
  0
CLASS
  1
SUN
  2
AcDbSun
  3
SCENEOE
 90
1153
 91
0
280
0
281
0
  0
CLASS
  1
VISUALSTYLE
  2
AcDbVisualStyle
  3
ObjectDBX Classes
 90
4095
 91
0
280
0
281
0
  0
CLASS
  1
MATERIAL
  2
AcDbMaterial
  3
ObjectDBX Classes
 90
1153
 91
0
280
0
281
0
  0
CLASS
  1
SCALE
  2
AcDbScale
  3
ObjectDBX Classes
 90
1153
 91
0
280
0
281
0
  0
CLASS
  1
TABLESTYLE
  2
AcDbTableStyle
  3
ObjectDBX Classes
 90
4095
 91
0
280
0
281
0
  0
CLASS
  1
MLEADERSTYLE
  2
AcDbMLeaderStyle
  3
ACDB_MLEADERSTYLE_CLASS
 90
4095
 91
0
280
0
281
0
  0
CLASS
  1
DICTIONARYVAR
  2
AcDbDictionaryVar
  3
ObjectDBX Classes
 90
0
 91
0
280
0
281
0
  0
CLASS
  1
CELLSTYLEMAP
  2
AcDbCellStyleMap
  3
ObjectDBX Classes
 90
1152
 91
0
280
0
281
0
  0
CLASS
  1
MENTALRAYRENDERSETTINGS
  2
AcDbMentalRayRenderSettings
  3
SCENEOE
 90
1024
 91
0
280
0
281
0
  0
CLASS
  1
ACDBDETAILVIEWSTYLE
  2
AcDbDetailViewStyle
  3
ObjectDBX Classes
 90
1025
 91
0
280
0
281
0
  0
CLASS
  1
ACDBSECTIONVIEWSTYLE
  2
AcDbSectionViewStyle
  3
ObjectDBX Classes
 90
1025
 91
0
280
0
281
0
  0
CLASS
  1
RASTERVARIABLES
  2
AcDbRasterVariables
  3
ISM
 90
0
 91
0
280
0
281
0
  0
CLASS
  1
LAYOUT
  2
AcDbLayout
  3
ObjectDBX Classes
 90
0
 91
0
280
0
281
0
  0
CLASS
  1
ACDBPLACEHOLDER
  2
AcDbPlaceHolder
  3
ObjectDBX Classes
 90
0
 91
0
280
0
281
0
  0
ENDSEC
  0
SECTION
  2
TABLES
  0
TABLE
  2
VPORT
  5
8
330
0
100
AcDbSymbolTable
 70
1
  0
VPORT
  5
23
330
8
100
AcDbSymbolTableRecord
100
AcDbViewportTableRecord
  2
*Active
 70
0
 10
0.0
 20
0.0
 11
1.0
 21
1.0
 12
70.0
 22
50.0
 13
0.0
 23
0.0
 14
0.5
 24
0.5
 15
0.5
 25
0.5
 16
0.0
 26
0.0
 36
1.0
 17
0.0
 27
0.0
 37
0.0
 40
1.0
 41
1.34
 42
50.0
 43
0.0
 44
0.0
 50
0.0
 51
0.0
 71
0
 72
1000
 73
1
 74
3
 75
0
 76
0
 77
0
 78
0
281
0
 65
0
146
0.0
  0
ENDTAB
  0
TABLE
  2
LTYPE
  5
2
330
0
100
AcDbSymbolTable
 70
3
  0
LTYPE
  5
24
330
2
100
AcDbSymbolTableRecord
100
AcDbLinetypeTableRecord
  2
ByBlock
 70
0
  3

 72
65
 73
0
 40
0.0
  0
LTYPE
  5
25
330
2
100
AcDbSymbolTableRecord
100
AcDbLinetypeTableRecord
  2
ByLayer
 70
0
  3

 72
65
 73
0
 40
0.0
  0
LTYPE
  5
26
330
2
100
AcDbSymbolTableRecord
100
AcDbLinetypeTableRecord
  2
Continuous
 70
0
  3

 72
65
 73
0
 40
0.0
  0
ENDTAB
  0
TABLE
  2
LAYER
  5
1
330
0
100
AcDbSymbolTable
 70
4
  0
LAYER
  5
27
330
1
100
AcDbSymbolTableRecord
100
AcDbLayerTableRecord
  2
0
 70
0
 62
7
  6
Continuous
370
-3
390
13
347
21
  0
LAYER
  5
28
330
1
100
AcDbSymbolTableRecord
100
AcDbLayerTableRecord
  2
Defpoints
 70
0
 62
7
  6
Continuous
290
0
370
-3
390
13
347
21
  0
LAYER
  5
2D
330
1
100
AcDbSymbolTableRecord
100
AcDbLayerTableRecord
  2
body
 70
0
 62
10
  6
Continuous
370
-3
390
13
347
21
  0
LAYER
  5
32
330
1
100
AcDbSymbolTableRecord
100
AcDbLayerTableRecord
  2
joints
 70
0
 62
170
  6
Continuous
370
-3
390
13
347
21
  0
ENDTAB
  0
TABLE
  2
STYLE
  5
5
330
0
100
AcDbSymbolTable
 70
1
  0
STYLE
  5
29
330
5
100
AcDbSymbolTableRecord
100
AcDbTextStyleTableRecord
  2
Standard
 70
0
 40
0.0
 41
1.0
 50
0.0
 71
0
 42
2.5
  3
txt
  4

  0
ENDTAB
  0
TABLE
  2
VIEW
  5
7
330
0
100
AcDbSymbolTable
 70
0
  0
ENDTAB
  0
TABLE
  2
UCS
  5
6
330
0
100
AcDbSymbolTable
 70
0
  0
ENDTAB
  0
TABLE
  2
APPID
  5
3
330
0
100
AcDbSymbolTable
 70
2
  0
APPID
  5
2A
330
3
100
AcDbSymbolTableRecord
100
AcDbRegAppTableRecord
  2
ACAD
 70
0
  0
APPID
  5
38
330
3
100
AcDbSymbolTableRecord
100
AcDbRegAppTableRecord
  2
HATCHBACKGROUNDCOLOR
 70
0
  0
ENDTAB
  0
TABLE
  2
DIMSTYLE
  5
4
330
0
100
AcDbSymbolTable
 70
1
100
AcDbDimStyleTable
  0
DIMSTYLE
105
2B
330
4
100
AcDbSymbolTableRecord
100
AcDbDimStyleTableRecord
  2
Standard
 70
0
 40
1.0
 41
2.5
 42
0.625
 43
3.75
 44
1.25
 45
0.0
 46
0.0
 47
0.0
 48
0.0
 49
2.5
140
2.5
141
2.5
142
0.0
143
0.03937007874
144
1.0
145
0.0
146
1.0
147
0.625
148
0.0
 69
0
 70
0
 71
0
 72
0
 73
0
 74
0
 75
0
 76
0
 77
1
 78
8
 79
0
170
0
171
3
172
1
173
0
174
0
175
0
176
0
177
0
178
0
179
0
271
0
272
2
273
2
274
3
275
0
276
0
277
2
278
44
279
0
280
0
281
0
282
0
283
0
284
8
285
0
286
0
288
0
289
3
290
0
371
-2
372
-2
  0
ENDTAB
  0
TABLE
  2
BLOCK_RECORD
  5
9
330
0
100
AcDbSymbolTable
 70
2
  0
BLOCK_RECORD
  5
17
330
9
100
AcDbSymbolTableRecord
100
AcDbBlockTableRecord
  2
*Model_Space
340
1A
 70
0
280
1
281
0
  0
BLOCK_RECORD
  5
1B
330
9
100
AcDbSymbolTableRecord
100
AcDbBlockTableRecord
  2
*Paper_Space
340
1E
 70
0
280
1
281
0
  0
ENDTAB
  0
ENDSEC
  0
SECTION
  2
BLOCKS
  0
BLOCK
  5
18
330
17
100
AcDbEntity
  8
0
100
AcDbBlockBegin
  2
*Model_Space
 70
0
 10
0.0
 20
0.0
 30
0.0
  3
*Model_Space
  1

  0
ENDBLK
  5
19
330
17
100
AcDbEntity
  8
0
100
AcDbBlockEnd
  0
BLOCK
  5
1C
330
1B
100
AcDbEntity
  8
0
100
AcDbBlockBegin
  2
*Paper_Space
 70
0
 10
0.0
 20
0.0
 30
0.0
  3
*Paper_Space
  1

  0
ENDBLK
  5
1D
330
1B
100
AcDbEntity
  8
0
100
AcDbBlockEnd
  0
ENDSEC
  0
SECTION
  2
ENTITIES
  0
LWPOLYLINE
  5
2E
330
17
100
AcDbEntity
  8
body
100
AcDbPolyline
 90
11
 70
0
 10
66.04825345247752
 20
37.790495532087704
 10
66.0482534524777
 20
37.790495532087796
 10
66.04825345247768
 20
37.790495532087704
 10
57.4233956133225
 20
-38.4714053614947
 10
6.58212835093419
 20
-63.438099106417496
 10
-21.7762304780535
 20
-58.0757129961285
 10
-51.2952071486596
 20
-22.5835093419984
 10
-17.703655564581652
 20
37.790495532087604
 10
-17.703655564581698
 20
37.790495532087704
 10
-17.7036555645816
 20
37.790495532087704
 10
66.04825345247752
 20
37.790495532087704
  0
LWPOLYLINE
  5
2F
330
17
100
AcDbEntity
  8
body
100
AcDbPolyline
 90
5
 70
0
 10
0.0
 20
0.0
 10
6.604825345247768
 20
3.7790495532087807
 10
0.0
 20
1e-14
 10
-0.8851827782290815
 20
1.8895247766043894
 10
0.0
 20
0.0
  0
LWPOLYLINE
  5
30
330
17
100
AcDbEntity
  8
body
100
AcDbPolyline
 90
4
 70
0
 10
-26.115462662053503
 20
-27.4219414299852
 10
-11.9905809291197
 20
-35.576512327349
 10
-9.73351219859937
 20
-17.7383884893656
 10
-26.115462662053503
 20
-27.4219414299852
  0
LWPOLYLINE
  5
31
330
17
100
AcDbEntity
  8
body
100
AcDbPolyline
 90
1559
 70
0
 10
42.0385201668978
 20
1.1899245688846
 10
42.019551935088
 20
1.18988799387828
 10
41.9997157690902
 20
1.18977149618002
 10
41.979880234238095
 20
1.1895750010527901
 10
41.960045653152605
 20
1.18929851169252
 10
41.940212348439104
 20
1.18894203259627
 10
41.9203806426824
 20
1.1885055695621
 10
41.9005508584409
 20
1.18798912968899
 10
41.8807233182423
 20
1.1873927213767201
 10
41.8608983445773
 20
1.18671635432576
 10
41.8410762598952
 20
1.18596003953708
 10
41.8212573865982
 20
1.1851237893119901
 10
41.8014420470361
 20
1.18420761725193
 10
41.7816305635015
 20
1.18321153825824
 10
41.7618232582241
 20
1.18213556853196
 10
41.7420204533657
 20
1.1809797255735102
 10
41.722222471014895
 20
1.17974402818244
 10
41.7024296331819
 20
1.1784284964571201
 10
41.6826422617932
 20
1.1770331517944
 10
41.6628606786863
 20
1.17555801688929
 10
41.6430852056046
 20
1.17400311573455
 10
41.623316164192296
 20
1.1723684736203301
 10
41.6035538759887
 20
1.17065411713376
 10
41.583798662423504
 20
1.1688600741585
 10
41.5640508448112
 20
1.1669863738742798
 10
41.544310744346
 20
1.16503304675647
 10
41.524578682096696
 20
1.16300012457554
 10
41.504854979001294
 20
1.16088764039654
 10
41.4851399558617
 20
1.1586956285786099
 10
41.4654339333389
 20
1.1564241247743698
 10
41.4457372319472
 20
1.1540731659293701
 10
41.4260501720495
 20
1.15164279028149
 10
41.4063730738519
 20
1.14913303736027
 10
41.386706257398394
 20
1.1465439479863602
 10
41.3670500425656
 20
1.14387556427075
 10
41.3474047490581
 20
1.1411279296141699
 10
41.3277706964024
 20
1.13830108870634
 10
41.3081482039425
 20
1.13539508752525
 10
41.2885375908342
 20
1.13240997333641
 10
41.2689391760402
 20
1.12934579469212
 10
41.249353278324605
 20
1.1262026014306
 10
41.2297802162482
 20
1.1229804446752698
 10
41.210220308162704
 20
1.11967937683383
 10
41.1906738722062
 20
1.1162994515975
 10
41.1711412262975
 20
1.11284072394007
 10
41.1516226881311
 20
1.10930325011704
 10
41.132118575172
 20
1.1056870876647
 10
41.1126292046506
 20
1.10199229539921
 10
41.0931548935577
 20
1.09821893341561
 10
41.0736959586388
 20
1.0943670630868598
 10
41.054252716389804
 20
1.09043674706285
 10
41.0348254830509
 20
1.08642804926938
 10
41.015414574602104
 20
1.0823410349070899
 10
40.996020306758005
 20
1.07817577045046
 10
40.9766429949623
 20
1.07393232364666
 10
40.957282954383096
 20
1.06961076351448
 10
40.937940499907505
 20
1.06521116034323
 10
40.918615946136704
 20
1.06073358569156
 10
40.8993096073805
 20
1.0561781123863099
 10
40.8800217976526
 20
1.05154481452133
 10
40.8607528306654
 20
1.04683376745626
 10
40.8415030198247
 20
1.04204504781534
 10
40.8222726782246
 20
1.03717873348611
 10
40.803062118643
 20
1.03223490361818
 10
40.783871653535506
 20
1.02721363862196
 10
40.7647015950312
 20
1.02211502016728
 10
40.745552254927205
 20
1.0169391311821399
 10
40.726423944683695
 20
1.0116860558513399
 10
40.7073169754187
 20
1.00635587961506
 10
40.6882316579032
 20
1.00094868916755
 10
40.669168302556
 20
0.9954645724556501
 10
40.650127219438694
 20
0.9899036186774199
 10
40.631108718250594
 20
0.9842659182806299
 10
40.612113108323896
 20
0.9785515629613399
 10
40.5931406986182
 20
0.9727606456623801
 10
40.574191797715905
 20
0.96689326057183
 10
40.5552667138172
 20
0.96094950312154
 10
40.536365754734504
 20
0.95492946998549
 10
40.5174892278882
 20
0.9488332590783201
 10
40.498637440301096
 20
0.9426609695536501
 10
40.4798106985938
 20
0.9364127018025099
 10
40.4610093089794
 20
0.93008855745172
 10
40.442233577258605
 20
0.92368863936219
 10
40.4234838088149
 20
0.9172130516273
 10
40.4047603086095
 20
0.91066189957116
 10
40.3860633811763
 20
0.9040352897469299
 10
40.3673933306171
 20
0.89733332993507
 10
40.3487504605964
 20
0.89055612914161
 10
40.3301350743367
 20
0.88370379759632
 10
40.3115474746135
 20
0.876776446751
 10
40.2929879637503
 20
0.8697741892775901
 10
40.2744568436139
 20
0.86269713906639
 10
40.255954415609004
 20
0.85554541122419
 10
40.237480980674
 20
0.84831912207239
 10
40.2190368392755
 20
0.8410183891451101
 10
40.2006222914037
 20
0.83364333118729
 10
40.1822376365675
 20
0.82619406815275
 10
40.1638831737896
 20
0.81867072120224
 10
40.14555920160149
 20
0.81107341270147
 10
40.1272660180391
 20
0.80340226621912
 10
40.1090039206371
 20
0.7956574065248301
 10
40.0907732064249
 20
0.78783895958716
 10
40.0725741719213
 20
0.7799470525715699
 10
40.05440711313
 20
0.77198181383833
 10
40.0362723255345
 20
0.76394337294042
 10
40.0181701040934
 20
0.7558318606214499
 10
40.0001007432356
 20
0.74764740881353
 10
39.9820645368557
 20
0.7393901506350901
 10
39.964061778308896
 20
0.73106022038877
 10
39.9460927604064
 20
0.72265775355918
 10
39.928157775410604
 20
0.71418288681075
 10
39.910257115030305
 20
0.70563575798546
 10
39.892391070416295
 20
0.69701650610063
 10
39.874559932156096
 20
0.68832527134663
 10
39.8567639902696
 20
0.67956219508463
 10
39.839003534204
 20
0.67072741984429
 10
39.8212788528297
 20
0.66182108932144
 10
39.8035902344349
 20
0.65284334837573
 10
39.785937966721505
 20
0.64379434302828
 10
39.7683223368
 20
0.63467422045935
 10
39.750743631184996
 20
0.62548312900586
 10
39.7332021357907
 20
0.61622121815906
 10
39.7156981359258
 20
0.6068886385620299
 10
39.6982319162894
 20
0.5974855420073
 10
39.680803760966
 20
0.5880120814343199
 10
39.6634139534211
 20
0.578468410927
 10
39.6460627764962
 20
0.5688546857112
 10
39.6287505124047
 20
0.55917106215221
 10
39.6114774427272
 20
0.5494176977522
 10
39.594243848406606
 20
0.53959475114766
 10
39.5770500097437
 20
0.52970238210682
 10
39.559896206393
 20
0.51974075152706
 10
39.542782717357404
 20
0.5097100214322701
 10
39.5257098209846
 20
0.49961035497023004
 10
39.5086777949615
 20
0.48944191640998996
 10
39.4916869163107
 20
0.47920487113911003
 10
39.474737461385395
 20
0.46889938566106
 10
39.4578297058649
 20
0.45852562759248
 10
39.4409639247506
 20
0.44808376566042
 10
39.424140392361004
 20
0.43757396969966
 10
39.4073593823272
 20
0.42699641064988
 10
39.3906211675892
 20
0.41635126055294
 10
39.3739260203904
 20
0.40563869255004
 10
39.357274212274206
 20
0.39485888087891996
 10
39.3406660140788
 20
0.38401200087104
 10
39.3241016959331
 20
0.37309822894868
 10
39.3075815272525
 20
0.36211774262214
 10
39.2911057767341
 20
0.35107072048679
 10
39.274674712352606
 20
0.33995734222021
 10
39.258288601356
 20
0.32877778857921997
 10
39.2419477102611
 20
0.31753224139701997
 10
39.2256523048491
 20
0.30622088358012
 10
39.2094026501614
 20
0.29484389910548
 10
39.1931990104955
 20
0.28340147301742996
 10
39.1770416494002
 20
0.2718937914247
 10
39.160930829671706
 20
0.26032104149741
 10
39.1448668133492
 20
0.24868341146398
 10
39.128849861710705
 20
0.23698109060809
 10
39.112880235268705
 20
0.22521426926562
 10
39.0969581937658
 20
0.21338313882152998
 10
39.0810839961709
 20
0.20148789170675
 10
39.0652579006746
 20
0.18952872139505
 10
39.049480164685
 20
0.17750582239992
 10
39.0337510448239
 20
0.16541939027137
 10
39.0180707969221
 20
0.15326962159274998
 10
39.0024396760158
 20
0.14105671397758998
 10
38.986857936342
 20
0.12878086606635
 10
38.9713258313344
 20
0.11644227752319
 10
38.95584361361961
 20
0.10404114903277
 10
38.9404115350127
 20
0.0915776822969
 10
38.925029846513496
 20
0.07905208003136
 10
38.9096987983018
 20
0.06646454596251
 10
38.894418639734
 20
0.05381528482404
 10
38.879189619339
 20
0.041104502353610003
 10
38.8640119848135
 20
0.02833240528951
 10
38.848885983018704
 20
0.01549920136732
 10
38.833811859976
 20
0.00260509931648
 10
38.8187898608629
 20
-0.010349691143059999
 10
38.8038202300092
 20
-0.02336495930425
 10
38.7889032108929
 20
-0.03644049347641
 10
38.7740390461363
 20
-0.04957608098862
 10
38.7592279775019
 20
-0.06277150819324
 10
38.744470245888905
 20
-0.07602656046930001
 10
38.72976609132861
 20
-0.08934102222609
 10
38.7151157529813
 20
-0.10271467690658
 10
38.7005194691317
 20
-0.116147306991
 10
38.685977477185304
 20
-0.12963869400035
 10
38.6714900136648
 20
-0.14318861849996
 10
38.657057314205694
 20
-0.15679686010306
 10
38.642679613553106
 20
-0.17046319747436
 10
38.6283571455572
 20
-0.18418740833366
 10
38.614090143170095
 20
-0.19796926945947
 10
38.599878838441704
 20
-0.21180855669261
 10
38.5857234625161
 20
-0.22570504493988
 10
38.5716242456274
 20
-0.23965850817773
 10
38.5575814170966
 20
-0.25366871945591
 10
38.5435952053275
 20
-0.26773545090116996
 10
38.5296658378029
 20
-0.28185847372101
 10
38.5157935410812
 20
-0.2960375582073
 10
38.5019785407925
 20
-0.31027247374013
 10
38.488221061635
 20
-0.32456298879148
 10
38.4745213273711
 20
-0.33890887092904
 10
38.4608795608245
 20
-0.35330988681993
 10
38.4472959838755
 20
-0.36776580223458
 10
38.433770817458395
 20
-0.38227638205043
 10
38.4203042815571
 20
-0.39684139025588
 10
38.4068965952023
 20
-0.411460589954
 10
38.393547976467104
 20
-0.42613374336648996
 10
38.380258642464106
 20
-0.44086061183749997
 10
38.3670288093418
 20
-0.45564095583749
 10
38.353858692280504
 20
-0.47047453496718
 10
38.3407485054896
 20
-0.48536110796141
 10
38.3276984622037
 20
-0.50030043269309
 10
38.314708774679
 20
-0.5152922661771601
 10
38.3017796541901
 20
-0.53033636457446
 10
38.2889113110266
 20
-0.54543248319582
 10
38.2761039544894
 20
-0.56058037650591
 10
38.263357792887696
 20
-0.57577979812734
 10
38.250673033535094
 20
-0.5910305008446001
 10
38.2380498827466
 20
-0.6063322366081
 10
38.225488545835304
 20
-0.62168475653823
 10
38.2129892271088
 20
-0.63708781092936
 10
38.200552129865905
 20
-0.65254114925395
 10
38.1881774563934
 20
-0.66804452016658
 10
38.175865407963
 20
-0.68359767150808
 10
38.1636161848277
 20
-0.6992003503096
 10
38.151429986218396
 20
-0.7148523027967401
 10
38.1393070103413
 20
-0.73055327439367
 10
38.1272474543742
 20
-0.74630300972728
 10
38.1152515144631
 20
-0.76210125263132
 10
38.1033193857198
 20
-0.7779477461505799
 10
38.091451262217696
 20
-0.79384223254506
 10
38.079647336989595
 20
-0.80978445329417
 10
38.067907802023896
 20
-0.8257741491009299
 10
38.0562328482618
 20
-0.84181105989618
 10
38.0446226655939
 20
-0.85789492484283
 10
38.0330774428575
 20
-0.87402548234008
 10
38.0215973678334
 20
-0.89020247002769
 10
38.0101826272427
 20
-0.90642562479024
 10
37.9988334067437
 20
-0.9226946827614201
 10
37.9875498909293
 20
-0.93900937932829
 10
37.9763322633234
 20
-0.9553694491356499
 10
37.9651807063787
 20
-0.97177462609026
 10
37.9540954014729
 20
-0.9882246433652699
 10
37.9430765289061
 20
-1.00471923340449
 10
37.9321242678982
 20
-1.02125812792675
 10
37.9212387965854
 20
-1.0378410579303
 10
37.9104202920178
 20
-1.0544677536971498
 10
37.899668930156
 20
-1.07113794479747
 10
37.8889848858688
 20
-1.0878513600939899
 10
37.8783683329301
 20
-1.1046077277464001
 10
37.8678194440159
 20
-1.12140677521579
 10
37.8573383907017
 20
-1.13824822926907
 10
37.8469253434597
 20
-1.1551318159834
 10
37.836580471656
 20
-1.17205726075067
 10
37.826303943548005
 20
-1.18902428828197
 10
37.8160959262811
 20
-1.20603262261204
 10
37.8059565858868
 20
-1.22308198710378
 10
37.7958860872793
 20
-1.24017210445274
 10
37.7858845942533
 20
-1.25730269669162
 10
37.775952269481095
 20
-1.27447348519483
 10
37.7660892745098
 20
-1.29168419068298
 10
37.756295769759
 20
-1.30893453322744
 10
37.7465719145182
 20
-1.32622423225489
 10
37.7369178669439
 20
-1.3435530065518901
 10
37.7273337840572
 20
-1.36092057426946
 10
37.7178198217412
 20
-1.37832665292761
 10
37.7083761347386
 20
-1.3957709594200298
 10
37.699002876649104
 20
-1.4132532100186102
 10
37.6897001999268
 20
-1.4307731203781
 10
37.6804682558779
 20
-1.44833040554071
 10
37.671307194658
 20
-1.46592477994077
 10
37.66221716527
 20
-1.48355595740935
 10
37.6531983155613
 20
-1.50122365117893
 10
37.644250792221705
 20
-1.5189275738880599
 10
37.6353747407808
 20
-1.5366674375860399
 10
37.6265703056058
 20
-1.5544429537375801
 10
37.6178376298991
 20
-1.57225383322753
 10
37.6091768556959
 20
-1.59009978636555
 10
37.6005881238618
 20
-1.60798052289083
 10
37.592071574090895
 20
-1.62589575197683
 10
37.5836273449032
 20
-1.64384518223599
 10
37.575255573642195
 20
-1.66182852172447
 10
37.5669563964732
 20
-1.67984547794691
 10
37.5587299483806
 20
-1.69789575786117
 10
37.550576363165796
 20
-1.71597906788312
 10
37.5424957734454
 20
-1.73409511389139
 10
37.5344883106484
 20
-1.75224360123217
 10
37.5265541050146
 20
-1.77042423472401
 10
37.5186932855923
 20
-1.7886367186626
 10
37.510905980236004
 20
-1.80688075682557
 10
37.5031923156047
 20
-1.82515605247737
 10
37.4955524171597
 20
-1.84346230837401
 10
37.4879864091623
 20
-1.86179922676797
 10
37.480494414672
 20
-1.88016650941299
 10
37.4730765555447
 20
-1.8985638575689399
 10
37.4657329524303
 20
-1.91699097200671
 10
37.4584637247711
 20
-1.93544755301301
 10
37.4512689907995
 20
-1.9539333003953099
 10
37.4441488675365
 20
-1.97244791348667
 10
37.4371034707893
 20
-1.99099109115068
 10
37.430132915150004
 20
-2.00956253178633
 10
37.4232373139932
 20
-2.02816193333289
 10
37.4164167794745
 20
-2.04678899327489
 10
37.4096714225285
 20
-2.06544340864697
 10
37.4030013528669
 20
-2.08412487603886
 10
37.3964066789773
 20
-2.10283309160029
 10
37.3898875081205
 20
-2.12156775104594
 10
37.3834439463296
 20
-2.14032854966036
 10
37.377076098407905
 20
-2.15911518230299
 10
37.370784067927005
 20
-2.17792734341306
 10
37.3645679572255
 20
-2.19676472701459
 10
37.3584278674073
 20
-2.21562702672136
 10
37.3523638983396
 20
-2.2345139357418997
 10
37.3463761486517
 20
-2.25342514688448
 10
37.3404647157331
 20
-2.27236035256207
 10
37.3346296957321
 20
-2.29131924479742
 10
37.3288711835541
 20
-2.31030151522799
 10
37.32318927286
 20
-2.329306855111
 10
37.3175840560651
 20
-2.34833495532847
 10
37.312055624337
 20
-2.3673855063922
 10
37.3066040675946
 20
-2.3864581984488598
 10
37.3012294745064
 20
-2.40555272128499
 10
37.295931932488905
 20
-2.42466876433205
 10
37.2907115277056
 20
-2.44380601667147
 10
37.2855683450654
 20
-2.46296416703975
 10
37.2805024682211
 20
-2.48214290383345
 10
37.2755139795681
 20
-2.50134191511432
 10
37.2706029602433
 20
-2.52056088861434
 10
37.265769490123205
 20
-2.53979951174082
 10
37.261013647823404
 20
-2.5590574715814403
 10
37.256335510696594
 20
-2.57833445490941
 10
37.2517351548318
 20
-2.59763014818851
 10
37.247212655052905
 20
-2.61694423757821
 10
37.242768084917294
 20
-2.63627640893877
 10
37.2384015167151
 20
-2.6556263478363498
 10
37.2341130214678
 20
-2.67499373954811
 10
37.2299026689267
 20
-2.69437826906738
 10
37.225770527572294
 20
-2.7137796211087197
 10
37.2217166646132
 20
-2.7331974801130703
 10
37.2177411459846
 20
-2.7526315302529
 10
37.213844036347496
 20
-2.7720814554373403
 10
37.2100253990876
 20
-2.7915469393173
 10
37.2062852963143
 20
-2.81102766529065
 10
37.202623788859505
 20
-2.83052331650733
 10
37.1990409362769
 20
-2.85003357587453
 10
37.195536796841
 20
-2.86955812606185
 10
37.1921114275457
 20
-2.8890966495064503
 10
37.1887648841042
 20
-2.90864882841821
 10
37.1854972209471
 20
-2.92821434478492
 10
37.1823084912224
 20
-2.94779288037742
 10
37.1791987467942
 20
-2.96738411675481
 10
37.1761680382417
 20
-2.98698773526961
 10
37.1732164148589
 20
-3.00660341707295
 10
37.1703439246532
 20
-3.02623084311975
 10
37.167550614345295
 20
-3.04586969417391
 10
37.1648365293676
 20
-3.0655196508135
 10
37.1622017138643
 20
-3.08518039343598
 10
37.1596462106901
 20
-3.10485160226336
 10
37.1571700614097
 20
-3.12453295734742
 10
37.1547733062971
 20
-3.14422413857493
 10
37.1524559843352
 20
-3.16392482567281
 10
37.1502181332147
 20
-3.1836346982134
 10
37.1480597893337
 20
-3.2033534356196203
 10
37.145980987797294
 20
-3.2230807171702103
 10
37.1439817624169
 20
-3.24281622200495
 10
37.1420621457093
 20
-3.26255962912985
 10
37.1402221688968
 20
-3.28231061742243
 10
37.138461861906194
 20
-3.30206886563685
 10
37.1367812533685
 20
-3.32183405240923
 10
37.1351803706186
 20
-3.34160585626281
 10
37.133659239694296
 20
-3.36138395561324
 10
37.1322178853367
 20
-3.38116802877373
 10
37.130856330989104
 20
-3.40095775396036
 10
37.1295745987968
 20
-3.4207528092972597
 10
37.128372709607
 20
-3.4405528728218897
 10
37.127250682968096
 20
-3.46035762249023
 10
37.126208537129706
 20
-3.48016673618205
 10
37.1252462890422
 20
-3.49997989170614
 10
37.1243639543561
 20
-3.51979676680556
 10
37.123561547422696
 20
-3.5396170391628403
 10
37.122839081292696
 20
-3.5594403864053
 10
37.1221965677171
 20
-3.57926648611021
 10
37.1216340171461
 20
-3.59909501581008
 10
37.121151438729505
 20
-3.6189256529979197
 10
37.1207488403164
 20
-3.63875807513244
 10
37.120426228454896
 20
-3.6585919596433096
 10
37.1201836083923
 20
-3.67842698393645
 10
37.1200209840747
 20
-3.69826282539919
 10
37.119938358147195
 20
-3.71809916140562
 10
37.119935731953696
 20
-3.73793566932176
 10
37.1200131055368
 20
-3.75777202651083
 10
37.1201704776382
 20
-3.77760791033852
 10
37.1204078456982
 20
-3.79744299817821
 10
37.120725205856
 20
-3.8172769674162104
 10
37.1211225529499
 20
-3.83710949545706
 10
37.121599880516996
 20
-3.8569402597287
 10
37.1221571807938
 20
-3.87676893768779
 10
37.12279444471589
 20
-3.89659520682491
 10
37.1235116619183
 20
-3.91641874466982
 10
37.1243088207355
 20
-3.9362392287967
 10
37.1251859082021
 20
-3.9560563368293997
 10
37.1261429100523
 20
-3.9758697464467003
 10
37.127179810720705
 20
-3.9956791353874896
 10
37.1282965933423
 20
-4.01548418145611
 10
37.1294932397529
 20
-4.03528456252749
 10
37.130769730489305
 20
-4.0550799565524605
 10
37.1321260447895
 20
-4.07487004156296
 10
37.1335621605935
 20
-4.09465449567727
 10
37.1350780545431
 20
-4.11443299710528
 10
37.1366737019826
 20
-4.134205224153661
 10
37.138349076959
 20
-4.15397085523117
 10
37.1401041522228
 20
-4.17372956885383
 10
37.1419388992281
 20
-4.19348104365017
 10
37.143853288133
 20
-4.21322495836647
 10
37.1458472878004
 20
-4.23296099187198
 10
37.147920865798305
 20
-4.2526888231641005
 10
37.1500739884003
 20
-4.27240813137368
 10
37.1523066205864
 20
-4.29211859577018
 10
37.1546187260433
 20
-4.31181989576688
 10
37.157010267165006
 20
-4.33151171092616
 10
37.1594812050536
 20
-4.35119372096463
 10
37.1620314995198
 20
-4.3708656057584
 10
37.164661109083596
 20
-4.3905270453482705
 10
37.1673699909749
 20
-4.41017771994491
 10
37.1701581011343
 20
-4.42981730993408
 10
37.1730253942137
 20
-4.44944549588186
 10
37.1759718235773
 20
-4.46906195853977
 10
37.1789973413019
 20
-4.48866637885005
 10
37.182101898178104
 20
-4.50825843795078
 10
37.1852854437109
 20
-4.52783781718109
 10
37.188547926120705
 20
-4.54740419808636
 10
37.191889292343696
 20
-4.5669572624233705
 10
37.195309488033296
 20
-4.58649669216552
 10
37.1988084575608
 20
-4.60602216950795
 10
37.2023861440162
 20
-4.62553337687272
 10
37.206042489209004
 20
-4.64502999691402
 10
37.2097774336696
 20
-4.66451171252328
 10
37.2135909166498
 20
-4.68397820683436
 10
37.217482876124194
 20
-4.70342916322868
 10
37.2214532487908
 20
-4.72286426534039
 10
37.225501970072195
 20
-4.74228319706149
 10
37.229628974117006
 20
-4.76168564254701
 10
37.2338341938001
 20
-4.78107128622011
 10
37.238117560724596
 20
-4.80043981277724
 10
37.2424790052223
 20
-4.8197909071932505
 10
37.2469184563552
 20
-4.83912425472652
 10
37.2514358419167
 20
-4.858439540924071
 10
37.2560310884322
 20
-4.8777364516267
 10
37.2607041211611
 20
-4.8970146729740796
 10
37.2654548640974
 20
-4.91627389140986
 10
37.2702832399713
 20
-4.9355137936867495
 10
37.2751891702502
 20
-4.9547340668716595
 10
37.2801725751401
 20
-4.9739343983507505
 10
37.285233373587005
 20
-4.9931144758345205
 10
37.2903714832781
 20
-5.01227398736291
 10
37.295586820642896
 20
-5.03141262131037
 10
37.3008793008552
 20
-5.05053006639089
 10
37.3062488378337
 20
-5.06962601166311
 10
37.3116953442442
 20
-5.08870014653537
 10
37.317218731500105
 20
-5.107752160770731
 10
37.322818909764905
 20
-5.12678174449206
 10
37.328495787952605
 20
-5.14578858818703
 10
37.3342492737301
 20
-5.16477238271321
 10
37.3400792735181
 20
-5.18373281930302
 10
37.345985692492796
 20
-5.20266958956882
 10
37.3519684345874
 20
-5.22158238550788
 10
37.358027402493995
 20
-5.24047089950743
 10
37.3641624976646
 20
-5.259334824349611
 10
37.370373620313096
 20
-5.27817385321653
 10
37.376660669417
 20
-5.2969876796952
 10
37.383023542718604
 20
-5.31577599778256
 10
37.3894621367271
 20
-5.33453850189043
 10
37.39597634672
 20
-5.3532748868505005
 10
37.4025660667451
 20
-5.37198484791926
 10
37.409231189621906
 20
-5.39066808078301
 10
37.4159716069435
 20
-5.4093242815627605
 10
37.4227872090785
 20
-5.42795314681918
 10
37.4296778851724
 20
-5.44655437355757
 10
37.436643523149705
 20
-5.46512765923276
 10
37.4436840097159
 20
-5.48367270175403
 10
37.450799230358804
 20
-5.5021891994900205
 10
37.4579890693507
 20
-5.52067685127367
 10
37.4652534097505
 20
-5.53913535640708
 10
37.4725921334051
 20
-5.55756441466639
 10
37.480005120951695
 20
-5.57596372630674
 10
37.487492251819404
 20
-5.5943329920670495
 10
37.4950534042317
 20
-5.61267191317494
 10
37.502688455208
 20
-5.63098019135159
 10
37.5103972805657
 20
-5.64925752881658
 10
37.5181797549222
 20
-5.66750362829272
 10
37.5260357516974
 20
-5.68571819301091
 10
37.5339651431149
 20
-5.70390092671495
 10
37.5419678002048
 20
-5.72205153366638
 10
37.550043592805494
 20
-5.74016971864926
 10
37.558192389565896
 20
-5.758255186975
 10
37.5664140579475
 20
-5.77630764448711
 10
37.574708464226504
 20
-5.79432679756606
 10
37.583075473496095
 20
-5.81231235313397
 10
37.5915149496686
 20
-5.83026401865944
 10
37.6000267554776
 20
-5.84818150216228
 10
37.608610752480196
 20
-5.86606451221824
 10
37.6172668010597
 20
-5.88391275796382
 10
37.625994760427005
 20
-5.90172594910092
 10
37.6347944886236
 20
-5.91950379590159
 10
37.643665842523895
 20
-5.93724600921279
 10
37.652608677837
 20
-5.9549523004610005
 10
37.6616228491096
 20
-5.972622381657
 10
37.6707082097279
 20
-5.99025596540051
 10
37.679864611920394
 20
-6.0078527648848805
 10
37.6890919067601
 20
-6.02541249390172
 10
37.698389944166905
 20
-6.04293486684562
 10
37.7077585729102
 20
-6.060419598718741
 10
37.717197640611005
 20
-6.077866405135469
 10
37.7267069937449
 20
-6.09527500232704
 10
37.7362864776442
 20
-6.11264510714616
 10
37.7459359365005
 20
-6.12997643707161
 10
37.755655213367305
 20
-6.14726871021281
 10
37.7654441501626
 20
-6.16452164531447
 10
37.7753025876712
 20
-6.181734961761091
 10
37.785230365547804
 20
-6.19890837958159
 10
37.795227322319
 20
-6.21604161945381
 10
37.8052932953863
 20
-6.23313440270908
 10
37.8154281210288
 20
-6.2501864513367495
 10
37.8256316344055
 20
-6.26719748798872
 10
37.835903669558505
 20
-6.28416723598394
 10
37.846244059415
 20
-6.301095419312889
 10
37.8566526357908
 20
-6.31798176264213
 10
37.867129229392496
 20
-6.33482599131869
 10
37.877673669820496
 20
-6.35162783137463
 10
37.8882857855715
 20
-6.36838700953143
 10
37.8989654040416
 20
-6.38510325320446
 10
37.9097123515291
 20
-6.40177629050741
 10
37.9205264532369
 20
-6.41840585025672
 10
37.931407533276
 20
-6.43499166197597
 10
37.942355414667794
 20
-6.45153345590032
 10
37.9533699193472
 20
-6.46803096298083
 10
37.9644508681655
 20
-6.48448391488892
 10
37.975598080893405
 20
-6.500892044020651
 10
37.986811376223606
 20
-6.51725508350114
 10
37.9980905717743
 20
-6.533572767188891
 10
38.009435484091604
 20
-6.549844829680071
 10
38.0208459286528
 20
-6.5660710063128995
 10
38.0323217198694
 20
-6.582251033171911
 10
38.0438626710898
 20
-6.59838464709224
 10
38.055468594603
 20
-6.61447158566396
 10
38.0671393016409
 20
-6.63051158723626
 10
38.0788746023818
 20
-6.64650439092179
 10
38.0906743059535
 20
-6.66244973660083
 10
38.1025382204362
 20
-6.67834736492558
 10
38.114466152865695
 20
-6.69419701732435
 10
38.1264579092365
 20
-6.70999843600576
 10
38.1385132945054
 20
-6.72575136396294
 10
38.150632112593705
 20
-6.74145554497772
 10
38.1628141663915
 20
-6.7571107236247805
 10
38.175059257760104
 20
-6.77271664527583
 10
38.1873671875356
 20
-6.78827305610373
 10
38.1997377555319
 20
-6.80377970308659
 10
38.2121707605444
 20
-6.81923633401198
 10
38.2246660003527
 20
-6.83464269748091
 10
38.2372232717243
 20
-6.84999854291203
 10
38.2498423704177
 20
-6.86530362054562
 10
38.2625230911858
 20
-6.8805576814477005
 10
38.2752652277794
 20
-6.89576047751408
 10
38.28806857295
 20
-6.91091176147436
 10
38.300932918454
 20
-6.9260112868959895
 10
38.3138580550553
 20
-6.94105880818825
 10
38.326843772529294
 20
-6.95605408060626
 10
38.339889859665796
 20
-6.9709968602549806
 10
38.352996104272904
 20
-6.9858869040931095
 10
38.3661622931803
 20
-7.00072396993713
 10
38.3793882122425
 20
-7.01550781646517
 10
38.3926736463426
 20
-7.03023820322098
 10
38.406018379395704
 20
-7.04491489061779
 10
38.4194221943526
 20
-7.05953763994227
 10
38.4328848732028
 20
-7.074106213358379
 10
38.4464061969785
 20
-7.08862037391123
 10
38.4599859457584
 20
-7.10307988553095
 10
38.473623898670404
 20
-7.11748451303651
 10
38.487319833896
 20
-7.13183402213958
 10
38.5010735286737
 20
-7.1461281794483
 10
38.5148847593023
 20
-7.16036675247111
 10
38.5287533011451
 20
-7.17454950962052
 10
38.542678928633
 20
-7.18867622021685
 10
38.5566614152685
 20
-7.2027466544920395
 10
38.5707005336293
 20
-7.21676058359332
 10
38.584796055372
 20
-7.23071777958698
 10
38.5989477512357
 20
-7.244618015462071
 10
38.6131553910461
 20
-7.25846106513408
 10
38.6274187437188
 20
-7.27224670344861
 10
38.6417375772632
 20
-7.28597470618505
 10
38.6561116587864
 20
-7.29964485006024
 10
38.6705407544969
 20
-7.31325691273206
 10
38.685024629708295
 20
-7.32681067280307
 10
38.6995630488435
 20
-7.34030590982411
 10
38.7141557754379
 20
-7.35374240429791
 10
38.7288025721439
 20
-7.3671199376826095
 10
38.743503200734196
 20
-7.38043829239534
 10
38.7582574221061
 20
-7.3936972518157695
 10
38.7730649962852
 20
-7.4068966002896195
 10
38.787925682429304
 20
-7.42003612313217
 10
38.8028392388324
 20
-7.43311560663175
 10
38.8178054229285
 20
-7.4461348380532
 10
38.8328239912957
 20
-7.459093605641391
 10
38.8478946996599
 20
-7.47199169862459
 10
38.8630173028993
 20
-7.48482890721794
 10
38.8781915550476
 20
-7.49760502262684
 10
38.893417209298896
 20
-7.510319837050369
 10
38.9086940180109
 20
-7.52297314368467
 10
38.924021732709406
 20
-7.5355647367262595
 10
38.9394001040922
 20
-7.54809441137545
 10
38.954828882033404
 20
-7.5605619638396195
 10
38.9703078155869
 20
-7.57296719133657
 10
38.985836652991
 20
-7.58530989209778
 10
39.001415141672304
 20
-7.59758986537175
 10
39.017043028249894
 20
-7.60980691142719
 10
39.032720058539404
 20
-7.62196083155633
 10
39.0484459775571
 20
-7.63405142807814
 10
39.0642205295241
 20
-7.64607850434152
 10
39.0800434578705
 20
-7.65804186472851
 10
39.095914505239605
 20
-7.66994131465749
 10
39.111833413492
 20
-7.68177666058632
 10
39.1277999237099
 20
-7.693547710015499
 10
39.1438137762013
 20
-7.70525427149132
 10
39.1598747105042
 20
-7.71689615460891
 10
39.1759824653906
 20
-7.72847317001542
 10
39.1921367788713
 20
-7.73998512941305
 10
39.2083373881995
 20
-7.75143184556212
 10
39.2245840298757
 20
-7.7628131322841
 10
39.2408764396516
 20
-7.77412880446469
 10
39.257214352534405
 20
-7.78537867805677
 10
39.273597502791304
 20
-7.79656257008344
 10
39.2900256239537
 20
-7.80768029864096
 10
39.3064984488214
 20
-7.818731682901739
 10
39.3230157094675
 20
-7.82971654311726
 10
39.339577137241896
 20
-7.840634700621
 10
39.3561824627765
 20
-7.851485977831341
 10
39.3728314159889
 20
-7.8622701982544605
 10
39.3895237260873
 20
-7.87298718648722
 10
39.4062591215748
 20
-7.88363676821996
 10
39.4230373302534
 20
-7.89421877023942
 10
39.4398580792291
 20
-7.904733020431469
 10
39.4567210949158
 20
-7.9151793477839805
 10
39.4736261030399
 20
-7.925557582389541
 10
39.4905728286449
 20
-7.935867555448291
 10
39.5075609960958
 20
-7.94610909927061
 10
39.524590329083395
 20
-7.956282047279861
 10
39.5416605506292
 20
-7.96638623401511
 10
39.5587713830895
 20
-7.97642149513382
 10
39.57592254816
 20
-7.986387667414499
 10
39.5931137668805
 20
-7.99628458875939
 10
39.610344759639396
 20
-8.00611209819708
 10
39.627615246178
 20
-8.01587003588511
 10
39.6449249455954
 20
-8.025558243112611
 10
39.6622735763529
 20
-8.03517656230286
 10
39.6796608562784
 20
-8.044724837015861
 10
39.6970865025714
 20
-8.05420291195085
 10
39.7145502318074
 20
-8.063610632948869
 10
39.7320517599423
 20
-8.07294784699524
 10
39.7495908023173
 20
-8.082214402222089
 10
39.7671670736634
 20
-8.091410147910771
 10
39.7847802881062
 20
-8.100534934494341
 10
39.8024301591703
 20
-8.109588613560009
 10
39.820116399784204
 20
-8.118571037851531
 10
39.8378387222847
 20
-8.12748206127158
 10
39.855596838421796
 20
-8.13632153888418
 10
39.8733904593635
 20
-8.145089326917029
 10
39.8912192957
 20
-8.15378528276383
 10
39.909083057449
 20
-8.16240926498663
 10
39.92698145406
 20
-8.170961133318109
 10
39.9449141944192
 20
-8.17944074866386
 10
39.9628809868543
 20
-8.18784797310467
 10
39.980881539139
 20
-8.196182669898741
 10
39.998915558498
 20
-8.20444470348392
 10
40.0169827516117
 20
-8.21263393947991
 10
40.035082824620694
 20
-8.220750244690452
 10
40.0532154831312
 20
-8.22879348710549
 10
40.071380432219
 20
-8.23676353590332
 10
40.0895773764351
 20
-8.24466026145271
 10
40.1078060198097
 20
-8.25248353531503
 10
40.12606606585771
 20
-8.260233230246321
 10
40.1443572175832
 20
-8.26790922019937
 10
40.1626791774843
 20
-8.27551138032576
 10
40.181031647558
 20
-8.28303958697789
 10
40.1994143293051
 20
-8.29049371771103
 10
40.217826923735196
 20
-8.29787365128523
 10
40.236269131370896
 20
-8.30517926766739
 10
40.2547406522537
 20
-8.31241044803313
 10
40.273241185947896
 20
-8.319567074768779
 10
40.291770431546105
 20
-8.32664903147327
 10
40.310328087674
 20
-8.33365620295999
 10
40.3289138524949
 20
-8.340588475258722
 10
40.3475274237153
 20
-8.34744573561748
 10
40.3661684985892
 20
-8.35422787250431
 10
40.3848367739232
 20
-8.36093477560914
 10
40.4035319460816
 20
-8.36756633584554
 10
40.422253710991406
 20
-8.37412244535253
 10
40.441001764146705
 20
-8.380602997496329
 10
40.459775800614395
 20
-8.387007886872079
 10
40.47857551503839
 20
-8.39333700930554
 10
40.4974006016454
 20
-8.39959026185483
 10
40.516250754249
 20
-8.40576754281207
 10
40.5351256662553
 20
-8.411868751705029
 10
40.5540250306679
 20
-8.4178937892988
 10
40.5729485400922
 20
-8.42384255759735
 10
40.5918958867414
 20
-8.42971495984518
 10
40.6108667624406
 20
-8.43551090052887
 10
40.6298608586324
 20
-8.44123028537861
 10
40.6488778663818
 20
-8.44687302136977
 10
40.6679174763808
 20
-8.4524390167244
 10
40.6869793789542
 20
-8.45792818091271
 10
40.706063264064
 20
-8.46334042465456
 10
40.7251688213146
 20
-8.46867565992091
 10
40.744295739958105
 20
-8.47393379993524
 10
40.763443708898905
 20
-8.479114759174971
 10
40.7826124166994
 20
-8.484218453372849
 10
40.8018015515842
 20
-8.48924479951833
 10
40.8210108014461
 20
-8.49419371585891
 10
40.840239853850605
 20
-8.49906512190148
 10
40.8594883960409
 20
-8.5038589384136
 10
40.8787561149434
 20
-8.50857508742482
 10
40.8980426971727
 20
-8.513213492227939
 10
40.917347829036295
 20
-8.51777407738024
 10
40.936671196540296
 20
-8.52225676870474
 10
40.9560124853939
 20
-8.52666149329136
 10
40.9753713810151
 20
-8.53098817949817
 10
40.9947475685353
 20
-8.53523675695247
 10
41.0141407328048
 20
-8.53940715655204
 10
41.0335505583977
 20
-8.54349931046616
 10
41.0529767296172
 20
-8.54751315213679
 10
41.0724189305004
 20
-8.55144861627959
 10
41.091876844824
 20
-8.555305638885061
 10
41.111350156109
 20
-8.5590841572195
 10
41.1308385476258
 20
-8.56278410982607
 10
41.1503417023998
 20
-8.5664054365258
 10
41.1698593032161
 20
-8.56994807841854
 10
41.1893910326248
 20
-8.57341197788395
 10
41.2089365729465
 20
-8.57679707858241
 10
41.228495606276795
 20
-8.58010332545593
 10
41.248067814492
 20
-8.58333066472909
 10
41.2676528792541
 20
-8.58647904390986
 10
41.2872504820161
 20
-8.58954841179051
 10
41.3068603040269
 20
-8.59253871844837
 10
41.3264820263368
 20
-8.59544991524673
 10
41.3461153298024
 20
-8.59828195483556
 10
41.365759895092005
 20
-8.60103479115231
 10
41.385415402690704
 20
-8.60370837942266
 10
41.4050815329058
 20
-8.60630267616123
 10
41.4247579658716
 20
-8.60881763917233
 10
41.4444443815549
 20
-8.61125322755057
 10
41.4641404597601
 20
-8.61360940168162
 10
41.4838458801347
 20
-8.61588612324279
 10
41.503560322173804
 20
-8.61808335520364
 10
41.5232834652261
 20
-8.62020106182667
 10
41.543014988498705
 20
-8.6222392086678
 10
41.5627545710624
 20
-8.624197762576971
 10
41.5825018918569
 20
-8.62607669169872
 10
41.602256629695894
 20
-8.62787596547264
 10
41.6220184632728
 20
-8.62959555463391
 10
41.641787071165304
 20
-8.63123543121376
 10
41.661562131841
 20
-8.632795568539931
 10
41.6813433236626
 20
-8.63427594123711
 10
41.7011303248929
 20
-8.63567652522733
 10
41.720922813700504
 20
-8.63699729773038
 10
41.7407204681646
 20
-8.63823823726416
 10
41.760522966280206
 20
-8.63939932364504
 10
41.7803299859638
 20
-8.6404805379882
 10
41.8001412050583
 20
-8.641481862707892
 10
41.8199563013382
 20
-8.64240328151778
 10
41.839774952514894
 20
-8.64324477943117
 10
41.8595968362422
 20
-8.64400634276127
 10
41.8794216301211
 20
-8.64468795912142
 10
41.8992490117054
 20
-8.64528961742525
 10
41.919078658506805
 20
-8.64581130788691
 10
41.938910248
 20
-8.646253022021229
 10
41.9587434576283
 20
-8.6466147526438
 10
41.9785779648086
 20
-8.64689649387116
 10
41.998413446936596
 20
-8.64709824112083
 10
42.018249581392304
 20
-8.64721999111144
 10
42.0380860455449
 20
-8.64726174186276
 10
42.0579225167585
 20
-8.64722349269571
 10
42.0777586723967
 20
-8.64710524423241
 10
42.0975941898286
 20
-8.64690699839615
 10
42.1174287464336
 20
-8.64662875841135
 10
42.137262019606496
 20
-8.64627052880353
 10
42.1570936867633
 20
-8.64583231539922
 10
42.1769234253458
 20
-8.645314125325879
 10
42.196750912827405
 20
-8.64471596701176
 10
42.2165758267182
 20
-8.64403785018579
 10
42.2363978445697
 20
-8.64327978587739
 10
42.2562166439811
 20
-8.64244178641634
 10
42.2760319026034
 20
-8.64152386543251
 10
42.295843298145705
 20
-8.640526037855711
 10
42.3156505083795
 20
-8.6394483199154
 10
42.3354532111445
 20
-8.638290729140449
 10
42.3552510843539
 20
-8.63705328435884
 10
42.375043805999304
 20
-8.63573600569734
 10
42.3948310541561
 20
-8.63433891458123
 10
42.414612506988604
 20
-8.63286203373392
 10
42.434387842755704
 20
-8.63130538717657
 10
42.4541567398154
 20
-8.62966900022773
 10
42.4739188766307
 20
-8.62795289950288
 10
42.4936739317744
 20
-8.62615711291407
 10
42.5134215839346
 20
-8.6242816696694
 10
42.5331615119197
 20
-8.62232660027257
 10
42.552893394663805
 20
-8.62029193652238
 10
42.572616911231904
 20
-8.61817771151223
 10
42.592331740824896
 20
-8.61598395962956
 10
42.612037562785105
 20
-8.6137107165553
 10
42.6317340566015
 20
-8.61135801926329
 10
42.6514209019144
 20
-8.608925906019671
 10
42.6710977785213
 20
-8.60641441638225
 10
42.690764366381906
 20
-8.60382359119993
 10
42.7104203456231
 20
-8.601153472611939
 10
42.7300653965444
 20
-8.59840410404722
 10
42.749699199622896
 20
-8.59557553022368
 10
42.769321435519004
 20
-8.59266779714751
 10
42.7889317850809
 20
-8.58968095211239
 10
42.8085299293503
 20
-8.58661504369876
 10
42.8281155495673
 20
-8.58347012177299
 10
42.8476883271758
 20
-8.580246237486591
 10
42.867247943828495
 20
-8.5769434432754
 10
42.8867940813923
 20
-8.57356179285867
 10
42.9063264219532
 20
-8.57010134123829
 10
42.9258446478217
 20
-8.56656214469778
 10
42.945348441537696
 20
-8.56294426080145
 10
42.964837485876
 20
-8.559247748393469
 10
42.9843114638513
 20
-8.55547266759684
 10
43.0037700587233
 20
-8.5516190798125
 10
43.023212954001906
 20
-8.547687047718249
 10
43.0426398334523
 20
-8.54367663526782
 10
43.0620503811003
 20
-8.53958790768973
 10
43.0814442812373
 20
-8.535420931486321
 10
43.100821218425494
 20
-8.53117577443261
 10
43.120180877502804
 20
-8.52685250557521
 10
43.1395229435884
 20
-8.52245119523121
 10
43.1588471020875
 20
-8.51797191498703
 10
43.1781530386966
 20
-8.513414737697259
 10
43.1974404394085
 20
-8.50877973748345
 10
43.216708990517596
 20
-8.50406698973295
 10
43.2359583786248
 20
-8.49927657109764
 10
43.2551882906428
 20
-8.49440855949271
 10
43.274398413800796
 20
-8.48946303409536
 10
43.2935884356503
 20
-8.48444007534358
 10
43.3127580440693
 20
-8.479339764934771
 10
43.331906927268
 20
-8.474162185824431
 10
43.3510347737939
 20
-8.46890742222485
 10
43.3701412725363
 20
-8.46357555960367
 10
43.389226112731905
 20
-8.45816668468257
 10
43.408288983969605
 20
-8.4526808854358
 10
43.4273295761958
 20
-8.447118251088758
 10
43.4463475797191
 20
-8.441478872116582
 10
43.4653426852155
 20
-8.43576284024261
 10
43.4843145837335
 20
-8.42997024843694
 10
43.503262966699
 20
-8.42410119091491
 10
43.5221875259204
 20
-8.41815576313554
 10
43.541087953593596
 20
-8.412134061800009
 10
43.559963942307
 20
-8.40603618485007
 10
43.5788151850464
 20
-8.399862231466441
 10
43.597641375200304
 20
-8.39361230206723
 10
43.6164422065644
 20
-8.38728649830627
 10
43.635217373347004
 20
-8.38088492307146
 10
43.653966570174
 20
-8.374407680483131
 10
43.6726894920933
 20
-8.36785487589232
 10
43.6913858345806
 20
-8.361226615879069
 10
43.7100552935435
 20
-8.35452300825066
 10
43.728697565327195
 20
-8.34774416203993
 10
43.7473123467187
 20
-8.340890187503419
 10
43.7658993349527
 20
-8.33396119611964
 10
43.784458227715305
 20
-8.32695730058723
 10
43.80298872315
 20
-8.319878614823129
 10
43.8214905198621
 20
-8.312725253960721
 10
43.8399633169236
 20
-8.305497334347951
 10
43.8584068138782
 20
-8.29819497354549
 10
43.8768207107462
 20
-8.29081829032474
 10
43.895204708029304
 20
-8.28336740466596
 10
43.9135585067154
 20
-8.27584243775628
 10
43.9318818082839
 20
-8.26824351198777
 10
43.9501743147099
 20
-8.26057075095542
 10
43.9684357284695
 20
-8.25282427945511
 10
43.9866657525445
 20
-8.24500422348163
 10
44.004864090427304
 20
-8.23711071022662
 10
44.0230304461256
 20
-8.22914386807645
 10
44.0411645241674
 20
-8.221103826610191
 10
44.059266029605496
 20
-8.21299071659749
 10
44.0773346680226
 20
-8.20480466999644
 10
44.095370145536
 20
-8.19654581995141
 10
44.1133721688024
 20
-8.18821430079093
 10
44.131340445022396
 20
-8.17981024802547
 10
44.1492746819458
 20
-8.17133379834522
 10
44.16717458787571
 20
-8.162785089617941
 10
44.1850398716738
 20
-8.15416426088662
 10
44.202870242765
 20
-8.1454714523673
 10
44.220665411141894
 20
-8.136706805446739
 10
44.2384250873697
 20
-8.12787046268014
 10
44.2561489825908
 20
-8.11896256778882
 10
44.2738368085297
 20
-8.10998326565789
 10
44.2914882774975
 20
-8.100932702333859
 10
44.3091031023967
 20
-8.09181102502232
 10
44.3266809967257
 20
-8.08261838208549
 10
44.3442216745835
 20
-8.07335492303984
 10
44.361724850674705
 20
-8.06402079855364
 10
44.3791902403137
 20
-8.054616160444551
 10
44.3966175594294
 20
-8.04514116167708
 10
44.41400652457
 20
-8.03559595636018
 10
44.4313568529076
 20
-8.02598069974465
 10
44.4486682622425
 20
-8.01629554822071
 10
44.465940471008295
 20
-8.00654065931536
 10
44.4831731982759
 20
-7.9967161916899
 10
44.500366163758606
 20
-7.9868223051373
 10
44.5175190878162
 20
-7.976859160579609
 10
44.53463169146
 20
-7.96682692006536
 10
44.551703696356796
 20
-7.9567257467668995
 10
44.5687348248341
 20
-7.946555804977761
 10
44.585724799883906
 20
-7.93631726010997
 10
44.6026733451678
 20
-7.92601027869139
 10
44.6195801850212
 20
-7.91563502836299
 10
44.6364450444577
 20
-7.905191677876089
 10
44.6532676491737
 20
-7.89468039708968
 10
44.670047725553104
 20
-7.88410135696759
 10
44.6867850006714
 20
-7.87345472957577
 10
44.703479202300095
 20
-7.86274068807946
 10
44.7201300589114
 20
-7.85195940674035
 10
44.736737299682595
 20
-7.8411110609138
 10
44.7533006545002
 20
-7.830195827045951
 10
44.769819853964606
 20
-7.81921388267086
 10
44.7862946293945
 20
-7.80816540640763
 10
44.8027247128309
 20
-7.797050577957481
 10
44.8191098370419
 20
-7.78586957810083
 10
44.8354497355267
 20
-7.774622588694379
 10
44.8517441425203
 20
-7.76330979266812
 10
44.8679927929974
 20
-7.751931374022391
 10
44.884195422677
 20
-7.74048751782485
 10
44.900351768026596
 20
-7.72897841020749
 10
44.9164615662666
 20
-7.717404238363629
 10
44.93252455537429
 20
-7.7057651905448
 10
44.9485404740885
 20
-7.694061456057759
 10
44.964509061913596
 20
-7.68229322526137
 10
44.9804300591236
 20
-7.6704606895635195
 10
44.996303206766896
 20
-7.658564041418
 10
45.012128246669896
 20
-7.64660347432136
 10
45.0279049214415
 20
-7.6345791828098095
 10
45.0436329744773
 20
-7.622491362456
 10
45.0593121499638
 20
-7.61034020986588
 10
45.0749421928823
 20
-7.59812592267547
 10
45.090522849013404
 20
-7.585848699547681
 10
45.1060538649408
 20
-7.57350874016904
 10
45.1215349880557
 20
-7.56110624524649
 10
45.1369659665609
 20
-7.54864141650408
 10
45.152346549474494
 20
-7.53611445667973
 10
45.1676764866345
 20
-7.5235255695219
 10
45.1829555287027
 20
-7.51087495978627
 10
45.198183427168495
 20
-7.498162833232439
 10
45.2133599343531
 20
-7.48538939662056
 10
45.2284848034139
 20
-7.472554857708
 10
45.2435577883479
 20
-7.45965942524591
 10
45.258578643996
 20
-7.4467033089759
 10
45.2735471260471
 20
-7.43368671962655
 10
45.288462991041904
 20
-7.420609868910041
 10
45.3033259963768
 20
-7.40747296951871
 10
45.3181359003081
 20
-7.394276235121549
 10
45.3328924619557
 20
-7.381019880360751
 10
45.3475954413072
 20
-7.36770412084825
 10
45.362244599221505
 20
-7.35432917316216
 10
45.3768396974331
 20
-7.3408952548433
 10
45.3913804985556
 20
-7.327402584391599
 10
45.40586676608601
 20
-7.31385138126263
 10
45.420298264407904
 20
-7.30024186586394
 10
45.4346747587961
 20
-7.28657425955153
 10
45.4489960154197
 20
-7.272848784626251
 10
45.4632618013464
 20
-7.259065664330159
 10
45.4774718845462
 20
-7.24522512284292
 10
45.491626033894796
 20
-7.2313273852781
 10
45.505724019178
 20
-7.21737267767961
 10
45.519765611094805
 20
-7.2033612270179095
 10
45.53375058126171
 20
-7.18929326118641
 10
45.5476787022158
 20
-7.17516900899771
 10
45.5615497474193
 20
-7.16098870017991
 10
45.575363491262195
 20
-7.14675256537285
 10
45.589119709067
 20
-7.13246083612437
 10
45.6028181770914
 20
-7.11811374488655
 10
45.6164586725328
 20
-7.103711525011899
 10
45.630040973531194
 20
-7.08925441074961
 10
45.6435648591733
 20
-7.0747426372417
 10
45.6570301094957
 20
-7.06017644051923
 10
45.670436505489
 20
-7.04555605749842
 10
45.683783829100804
 20
-7.03088172597684
 10
45.6970718632396
 20
-7.0161536846295
 10
45.7103003917783
 20
-7.001372173005
 10
45.7234691995575
 20
-6.98653743152164
 10
45.7365780723893
 20
-6.97164970146346
 10
45.7496267970604
 20
-6.95670922497638
 10
45.762615161336
 20
-6.9417162450642005
 10
45.7755429539631
 20
-6.9266710055847
 10
45.7884099646737
 20
-6.9115737512456406
 10
45.801215984188396
 20
-6.89642472760081
 10
45.813960804219995
 20
-6.88122418104598
 10
45.8266442174766
 20
-6.86597235881496
 10
45.839266017665
 20
-6.8506695089755505
 10
45.851825999494295
 20
-6.83531588042549
 10
45.864323958678696
 20
-6.81991172288842
 10
45.8767596919417
 20
-6.80445728690984
 10
45.8891329970185
 20
-6.78895282385301
 10
45.9014436726598
 20
-6.77339858589488
 10
45.913691518635005
 20
-6.75779482602196
 10
45.9258763357354
 20
-6.74214179802624
 10
45.9379979257773
 20
-6.72643975650103
 10
45.9500560916056
 20
-6.71068895683687
 10
45.9620506370967
 20
-6.69488965521729
 10
45.9739813671617
 20
-6.67904210861474
 10
45.9858480877497
 20
-6.66314657478634
 10
45.9976506058509
 20
-6.64720331226972
 10
46.0093887294998
 20
-6.6312125803788
 10
46.0210622677782
 20
-6.61517463919959
 10
46.0326710308183
 20
-6.599089749585951
 10
46.044214829805895
 20
-6.582958173155331
 10
46.0556934769836
 20
-6.5667801722845605
 10
46.0671067856534
 20
-6.55055601010553
 10
46.0784545701802
 20
-6.53428595050094
 10
46.0897366459946
 20
-6.5179702581
 10
46.1009528295959
 20
-6.50160919827415
 10
46.1121029385552
 20
-6.48520303713269
 10
46.1231867915182
 20
-6.4687520415185
 10
46.1342042082083
 20
-6.45225647900368
 10
46.1451550094295
 20
-6.43571661788521
 10
46.156039017069205
 20
-6.41913272718056
 10
46.1668560541012
 20
-6.40250507662336
 10
46.1776059445886
 20
-6.38583393665896
 10
46.1882885136866
 20
-6.36911957844006
 10
46.1989035876454
 20
-6.35236227382231
 10
46.2094509938131
 20
-6.3355622953598605
 10
46.2199305606381
 20
-6.3187199163009495
 10
46.2303421176724
 20
-6.30183541058346
 10
46.2406854955743
 20
-6.2849090528304306
 10
46.250960526110696
 20
-6.2679411183456395
 10
46.2611670421603
 20
-6.2509318831091
 10
46.271304877716304
 20
-6.23388162377255
 10
46.2813738678889
 20
-6.21679061765502
 10
46.2913738489078
 20
-6.19965914273824
 10
46.3013046581255
 20
-6.182487477662161
 10
46.311166134019494
 20
-6.16527590172044
 10
46.320958116194596
 20
-6.1480246948558595
 10
46.3306804453865
 20
-6.13073413765579
 10
46.340332963463396
 20
-6.11340451134764
 10
46.349915513428904
 20
-6.09603609779426
 10
46.359427939425
 20
-6.0786291794893605
 10
46.3688700867338
 20
-6.061184039552931
 10
46.3782418017809
 20
-6.04370096172664
 10
46.3875429321372
 20
-6.0261802303692
 10
46.3967733265216
 20
-6.00862213045173
 10
46.4059328348037
 20
-5.99102694755317
 10
46.415021308006004
 20
-5.97339496785559
 10
46.4240385983062
 20
-5.955726478139559
 10
46.43298455904
 20
-5.93802176577948
 10
46.4418590447031
 20
-5.92028111873889
 10
46.4506619109539
 20
-5.90250482556583
 10
46.4593930146155
 20
-5.884693175388071
 10
46.468052213678206
 20
-5.86684645790851
 10
46.4766393673021
 20
-5.84896496340036
 10
46.485154335818606
 20
-5.83104898270252
 10
46.4935969807337
 20
-5.81309880721475
 10
46.5019671647294
 20
-5.795114728893029
 10
46.5102647516664
 20
-5.777097040244731
 10
46.518489606586094
 20
-5.7590460343239
 10
46.5266415957129
 20
-5.74096200472648
 10
46.5347205864564
 20
-5.72284524558554
 10
46.5427264474134
 20
-5.70469605156649
 10
46.5506590483702
 20
-5.686514717862281
 10
46.5585182603047
 20
-5.66830154018861
 10
46.5663039553883
 20
-5.65005681477912
 10
46.5740160069885
 20
-5.63178083838055
 10
46.5816542896701
 20
-5.61347390824796
 10
46.589218679198105
 20
-5.595136322139839
 10
46.596709052539204
 20
-5.5767683783133
 10
46.604125287864
 20
-5.55837037551923
 10
46.611467264549
 20
-5.53994261299739
 10
46.618734863178304
 20
-5.521485390471611
 10
46.6259279655461
 20
-5.50299900814485
 10
46.6330464546578
 20
-5.48448376669437
 10
46.6400902147329
 20
-5.465939967266809
 10
46.6470591312058
 20
-5.44736791147331
 10
46.6539530907287
 20
-5.42876790138457
 10
46.6607719811726
 20
-5.41014023952599
 10
46.667515691629696
 20
-5.3914852288727
 10
46.6741841124149
 20
-5.37280317284465
 10
46.6807771350677
 20
-5.3540943753017
 10
46.687294652354
 20
-5.33535914053863
 10
46.693736558267595
 20
-5.3165977732802405
 10
46.7001027480322
 20
-5.297810578676341
 10
46.7063931181031
 20
-5.27899786229685
 10
46.7126075661686
 20
-5.26015993012678
 10
46.7187459911521
 20
-5.24129708856126
 10
46.7248082932133
 20
-5.22240964440058
 10
46.7307943737501
 20
-5.2034979048451895
 10
46.736704135400096
 20
-5.1845621774906805
 10
46.742537482042195
 20
-5.16560277032281
 10
46.7482943187982
 20
-5.1466199917125
 10
46.7539745520344
 20
-5.12761415041078
 10
46.759578089362904
 20
-5.10858555554379
 10
46.7651048396433
 20
-5.08953451660777
 10
46.7705547129842
 20
-5.07046134346399
 10
46.775927620744405
 20
-5.05136634633375
 10
46.7812234755348
 20
-5.032249835793291
 10
46.786442191219194
 20
-5.01311212276877
 10
46.791583682916404
 20
-4.9939535185312005
 10
46.796647867001
 20
-4.9747743346914
 10
46.801634661105105
 20
-4.9555748831949
 10
46.8065439841196
 20
-4.93635547631686
 10
46.8113757561952
 20
-4.9171164266570395
 10
46.8161298987443
 20
-4.89785804713467
 10
46.8208063344415
 20
-4.87858065098339
 10
46.825404987225696
 20
-4.85928455174613
 10
46.8299257823007
 20
-4.83997006327002
 10
46.834368646136596
 20
-4.82063749970129
 10
46.8387335064713
 20
-4.8012871754801605
 10
46.843020292311095
 20
-4.781919405335731
 10
46.8472289339323
 20
-4.76253450428084
 10
46.851359362882306
 20
-4.74313278760697
 10
46.8554115119804
 20
-4.7237145708791
 10
46.8593853153193
 20
-4.70428016993058
 10
46.8632807082658
 20
-4.684829900858
 10
46.86709762746219
 20
-4.66536408001602
 10
46.870836010827105
 20
-4.64588302401228
 10
46.8744957975564
 20
-4.6263870497021795
 10
46.8780769281245
 20
-4.6068764741838
 10
46.8815793442849
 20
-4.58735161479268
 10
46.885002989071594
 20
-4.56781278909669
 10
46.8883478067997
 20
-4.54826031489086
 10
46.8916137430664
 20
-4.52869451019221
 10
46.894800744752
 20
-4.509115693234589
 10
46.8979087600204
 20
-4.4895241824634695
 10
46.9009377383205
 20
-4.46992029653079
 10
46.9038876303866
 20
-4.450304354289781
 10
46.9067583882392
 20
-4.43067667478976
 10
46.909549965186
 20
-4.41103757727094
 10
46.912262315822694
 20
-4.39138738115925
 10
46.9148953960333
 20
-4.37172640606115
 10
46.917449162991396
 20
-4.3520549717584
 10
46.919923575160496
 20
-4.33237339820288
 10
46.9223185922948
 20
-4.31268200551139
 10
46.9246341754397
 20
-4.29298111396043
 10
46.9268702869328
 20
-4.2732710439809996
 10
46.929026890404295
 20
-4.25355211615338
 10
46.9311039507773
 20
-4.23382465120193
 10
46.933101434269
 20
-4.214088969989859
 10
46.9350193083906
 20
-4.194345393514021
 10
46.9368575419484
 20
-4.174594242899659
 10
46.9386161050437
 20
-4.15483583939524
 10
46.9402949690741
 20
-4.13507050436718
 10
46.941894106733
 20
-4.11529855929464
 10
46.943413492010805
 20
-4.09552032576428
 10
46.9448531001951
 20
-4.075736125465061
 10
46.946212907870894
 20
-4.0559462801829795
 10
46.947492892921204
 20
-4.03615111179585
 10
46.9486930345272
 20
-4.01635094226806
 10
46.9498133131691
 20
-3.99654609364535
 10
46.9508537106256
 20
-3.97673688804955
 10
46.951814209974806
 20
-3.9569236476733805
 10
46.9526947955946
 20
-3.93710669477517
 10
46.9534954531622
 20
-3.91728635167361
 10
46.9542161696552
 20
-3.8974629407425803
 10
46.9548569333513
 20
-3.87763678440582
 10
46.955417733828604
 20
-3.85780820513174
 10
46.9558985619658
 20
-3.83797752542815
 10
46.956299409942304
 20
-3.81814506783703
 10
46.9566202712384
 20
-3.79831115492927
 10
46.9568611406353
 20
-3.77847610929944
 10
46.957022014215404
 20
-3.75864025356053
 10
46.9571028893621
 20
-3.73880391033869
 10
46.9571037647599
 20
-3.71896740226803
 10
46.9570246403947
 20
-3.6991310519853102
 10
46.9568655175533
 20
-3.6792951821247404
 10
46.956626398824
 20
-3.65946011531273
 10
46.9563072880958
 20
-3.63962617416259
 10
46.95590819055899
 20
-3.61979368126936
 10
46.955429112705
 20
-3.59996295920451
 10
46.9548700623258
 20
-3.58013433051069
 10
46.954231048514195
 20
-3.56030811769653
 10
46.953512081663696
 20
-3.54048464323134
 10
46.9527131734681
 20
-3.52066422953993
 10
46.9518343369216
 20
-3.5008471989972803
 10
46.9508755863181
 20
-3.48103387392337
 10
46.9498369372516
 20
-3.46122457657792
 10
46.9487184066155
 20
-3.4414196291551202
 10
46.9475200126025
 20
-3.42161935377841
 10
46.946241774704205
 20
-3.40182407249526
 10
46.9448837137109
 20
-3.3820341072718803
 10
46.9434458517112
 20
-3.36224977998806
 10
46.941928212091604
 20
-3.34247141243184
 10
46.9403308195362
 20
-3.32269932629436
 10
46.9386537000262
 20
-3.30293384316459
 10
46.936896880839804
 20
-3.28317528452409
 10
46.9350603905511
 20
-3.26342397174181
 10
46.9331442590304
 20
-3.2436802260688298
 10
46.9311485174431
 20
-3.22394436863318
 10
46.9290731982496
 20
-3.20421672043455
 10
46.9269183352044
 20
-3.18449760233915
 10
46.924683963356095
 20
-3.16478733507441
 10
46.9223701190462
 20
-3.14508623922384
 10
46.9199768399089
 20
-3.1253946352217596
 10
46.9175041648704
 20
-3.1057128433481003
 10
46.9149521341483
 20
-3.08604118372322
 10
46.9123207892508
 20
-3.06637997630266
 10
46.9096101729763
 20
-3.0467295408719597
 10
46.9068203294123
 20
-3.02709019704146
 10
46.9039513039351
 20
-3.00746226424111
 10
46.901003143208804
 20
-2.98784606171525
 10
46.8979758951847
 20
-2.96824190851741
 10
46.8948696091003
 20
-2.94865012350518
 10
46.8916843354787
 20
-2.92907102533495
 10
46.8884201261277
 20
-2.90950493245678
 10
46.8850770341391
 20
-2.8899521631092
 10
46.881655113887604
 20
-2.87041303531403
 10
46.878154421030004
 20
-2.8508878668712003
 10
46.8745750125044
 20
-2.83137697535363
 10
46.8709169465291
 20
-2.81188067810199
 10
46.8671802826018
 20
-2.7923992922196104
 10
46.8633650814986
 20
-2.77293313456726
 10
46.859471405273005
 20
-2.75348252175805
 10
46.855499317254804
 20
-2.73404777015224
 10
46.851448882049205
 20
-2.7146291958521203
 10
46.8473201655358
 20
-2.69522711469685
 10
46.843113234867204
 20
-2.67584184225735
 10
46.838828158468395
 20
-2.65647369383113
 10
46.8344650060352
 20
-2.63712298443719
 10
46.8300238485335
 20
-2.61779002881089
 10
46.8255047581977
 20
-2.59847514139883
 10
46.820907808529896
 20
-2.5791786363537197
 10
46.8162330742986
 20
-2.5599008275292996
 10
46.8114806315374
 20
-2.54064202847522
 10
46.8066505575439
 20
-2.52140255243192
 10
46.8017429308781
 20
-2.50218271232559
 10
46.796757831361596
 20
-2.48298282076301
 10
46.7916953400761
 20
-2.4638031900265203
 10
46.786555539362
 20
-2.44464413206891
 10
46.781338512817
 20
-2.42550595850838
 10
46.7760443452951
 20
-2.4063889806234298
 10
46.7706731229048
 20
-2.38729350934782
 10
46.7652249330079
 20
-2.36821985526551
 10
46.7596998642182
 20
-2.34916832860562
 10
46.7540980063998
 20
-2.33013923923734
 10
46.7484194506657
 20
-2.3111328966649602
 10
46.7426642893765
 20
-2.29214961002278
 10
46.7368326161387
 20
-2.27318968807009
 10
46.7309245258034
 20
-2.25425343918618
 10
46.7249401144644
 20
-2.23534117136529
 10
46.7188794794569
 20
-2.21645319221161
 10
46.712742719356
 20
-2.1975898089342802
 10
46.7065299339747
 20
-2.1787513283424103
 10
46.700241224362806
 20
-2.1599380568400504
 10
46.6938766928049
 20
-2.14115030042125
 10
46.6874364428188
 20
-2.1223883646650403
 10
46.6809205791538
 20
-2.10365255473049
 10
46.67432920778921
 20
-2.08494317535176
 10
46.6676624359322
 20
-2.06626053083309
 10
46.6609203720166
 20
-2.04760492504391
 10
46.6541031257006
 20
-2.02897666141385
 10
46.6472108078654
 20
-2.01037604292784
 10
46.6402435306131
 20
-1.99180337212115
 10
46.633201407265105
 20
-1.9732589510745098
 10
46.626084552360005
 20
-1.95474308140915
 10
46.6188930816522
 20
-1.93625606428194
 10
46.611627112109296
 20
-1.91779820038046
 10
46.6042867619109
 20
-1.8993697899181001
 10
46.5968721504464
 20
-1.88097113262922
 10
46.5893833983128
 20
-1.86260252776426
 10
46.5818206273131
 20
-1.8442642740848199
 10
46.5741839604545
 20
-1.82595666985889
 10
46.5664735219455
 20
-1.80768001285593
 10
46.5586894371951
 20
-1.78943460034205
 10
46.5508318328097
 20
-1.77122072907518
 10
46.5429008365916
 20
-1.7530386953002302
 10
46.534896577537
 20
-1.7348887947443001
 10
46.526819185833496
 20
-1.71677132261182
 10
46.5186687928581
 20
-1.6986865735798
 10
46.5104455311754
 20
-1.68063484179301
 10
46.5021495345351
 20
-1.6626164208592098
 10
46.4937809378699
 20
-1.6446316038443398
 10
46.4853398772932
 20
-1.62668068326781
 10
46.4768264900973
 20
-1.6087639510976801
 10
46.4682409147506
 20
-1.5908816987459702
 10
46.4595832908958
 20
-1.57303421706388
 10
46.450853759347304
 20
-1.5552217963370798
 10
46.4420524620893
 20
-1.53744472628097
 10
46.4331795422731
 20
-1.51970329603598
 10
46.4242351442148
 20
-1.50199779416287
 10
46.4152194133933
 20
-1.48432850863803
 10
46.406132496447604
 20
-1.4666957268488099
 10
46.3969745411746
 20
-1.44909973558881
 10
46.3877456965266
 20
-1.4315408210532599
 10
46.3784461126088
 20
-1.41401926883434
 10
46.3690759406772
 20
-1.3965353639165299
 10
46.3596353331355
 20
-1.3790893906720099
 10
46.3501244435335
 20
-1.3616816328559702
 10
46.340543426563805
 20
-1.34431237360206
 10
46.3308924380596
 20
-1.32698189541776
 10
46.3211716349924
 20
-1.30969048017977
 10
46.311381175469
 20
-1.29243840912946
 10
46.3015212187294
 20
-1.27522596286824
 10
46.2915919251435
 20
-1.2580534213530699
 10
46.2815934562095
 20
-1.24092106389184
 10
46.2715259745504
 20
-1.22382916913886
 10
46.2613896439117
 20
-1.20677801509034
 10
46.2511846291587
 20
-1.18976787907983
 10
46.240911096274
 20
-1.17279903777373
 10
46.230569212354595
 20
-1.15587176716681
 10
46.220159145608896
 20
-1.13898634257768
 10
46.2096810653548
 20
-1.12214303864434
 10
46.199135142015905
 20
-1.1053421293196999
 10
46.188521547119606
 20
-1.0885838878671499
 10
46.1778404532939
 20
-1.07186858685609
 10
46.1670920342646
 20
-1.05519649815747
 10
46.156276464852596
 20
-1.03856789293945
 10
46.1453939209708
 20
-1.0219830416629
 10
46.1344445796217
 20
-1.00544221407707
 10
46.123428618893996
 20
-0.98894567921515
 10
46.112346217960194
 20
-0.97249370538993
 10
46.1011975570732
 20
-0.95608656018942
 10
46.0899828175637
 20
-0.93972451047252
 10
46.0787021818373
 20
-0.9234078223646299
 10
46.067355833371
 20
-0.90713676125336
 10
46.055943956711104
 20
-0.89091159178424
 10
46.0444667374693
 20
-0.87473257785633
 10
46.032924362320195
 20
-0.85859998261802
 10
46.0213170189984
 20
-0.8425140684626801
 10
46.009644896294795
 20
-0.82647509702446
 10
45.9979081840542
 20
-0.81048332917395
 10
45.9861070731718
 20
-0.79453902501401
 10
45.9742417555902
 20
-0.77864244387552
 10
45.9623124242965
 20
-0.76279384431313
 10
45.950319273318804
 20
-0.74699348410109
 10
45.9382624977233
 20
-0.73124162022907
 10
45.9261422936109
 20
-0.7155385088979099
 10
45.9139588581144
 20
-0.69988440551555
 10
45.901712389394795
 20
-0.6842795646927801
 10
45.889403086638495
 20
-0.66872424023918
 10
45.877031150053696
 20
-0.65321868515894
 10
45.8645967808675
 20
-0.63776315164676
 10
45.8521001813225
 20
-0.6223578910837501
 10
45.839541554673204
 20
-0.60700315403336
 10
45.8269211051831
 20
-0.59169919023725
 10
45.8142390381213
 20
-0.57644624861129
 10
45.8014955597591
 20
-0.56124457724147
 10
45.7886908773665
 20
-0.54609442337991
 10
45.775825199209194
 20
-0.53099603344076
 10
45.7628987345446
 20
-0.51594965299627
 10
45.749911693619204
 20
-0.50095552677277
 10
45.7368642876646
 20
-0.48601389864667
 10
45.7237567288941
 20
-0.47112501164052
 10
45.710589230499494
 20
-0.45628910791905003
 10
45.697362006647595
 20
-0.44150642878519997
 10
45.6840752724764
 20
-0.42677721467626
 10
45.6707292440919
 20
-0.41210170515989997
 10
45.657324138564604
 20
-0.3974801389303
 10
45.6438601739259
 20
-0.38291275380427
 10
45.6303375691643
 20
-0.36839978671737
 10
45.6167565442223
 20
-0.35394147372004997
 10
45.6031173199924
 20
-0.33953804997384
 10
45.589420118314
 20
-0.32518974974750997
 10
45.5756651619693
 20
-0.31089680641324
 10
45.5618526746796
 20
-0.29665945244285
 10
45.5479828811025
 20
-0.28247791940401
 10
45.5340560068272
 20
-0.26835243795647
 10
45.5200722783716
 20
-0.25428323784833
 10
45.5060319231781
 20
-0.24027054791226
 10
45.4919351696103
 20
-0.22631459606183
 10
45.477782246949
 20
-0.21241560928774
 10
45.4635733853885
 20
-0.1985738136542
 10
45.449308816033295
 20
-0.18478943429519998
 10
45.4349887708935
 20
-0.17106269541087002
 10
45.420613482881805
 20
-0.15739382026383
 10
45.4061831858094
 20
-0.14378303117556
 10
45.3916981143821
 20
-0.13023054952278
 10
45.3771585041966
 20
-0.11673659573385001
 10
45.3625645917367
 20
-0.10330138928519
 10
45.3479166143695
 20
-0.0899251486977
 10
45.3332148103414
 20
-0.07660809153321001
 10
45.318459418774204
 20
-0.06335043439096001
 10
45.3036506796613
 20
-0.05015239290405
 10
45.2887888338639
 20
-0.03701418173594
 10
45.2738741231069
 20
-0.02393601457696
 10
45.25890678997499
 20
-0.01091810414085
 10
45.2438870779088
 20
0.00203933783873
 10
45.228815231201004
 20
0.0149361006116
 10
45.213691494992
 20
0.02777197441455
 10
45.1985161152664
 20
0.04054675047469
 10
45.1832893388486
 20
0.0532602210129
 10
45.16801141339899
 20
0.06591217924714
 10
45.152682587410006
 20
0.07850241939588999
 10
45.1373031102019
 20
0.09103073668146
 10
45.1218732319186
 20
0.1034969273333
 10
45.1063932035241
 20
0.11590078859136001
 10
45.0908632767979
 20
0.12824211870936
 10
45.075283704331
 20
0.14052071695805998
 10
45.0596547395221
 20
0.15273638362856998
 10
45.043976636573
 20
0.16488892003553998
 10
45.028249650485
 20
0.17697812852043
 10
45.012474037054304
 20
0.18900381245473
 10
44.9966500528679
 20
0.20096577624314
 10
44.9807779552999
 20
0.21286382532673
 10
44.9648580025067
 20
0.22469776618617002
 10
44.948890453423
 20
0.2364674063448
 10
44.932875567757804
 20
0.24817255437181002
 10
44.916813605989894
 20
0.25981301988536
 10
44.900704829364
 20
0.27138861355564003
 10
44.8845494998859
 20
0.28289914710797
 10
44.8683478803189
 20
0.29434443332585003
 10
44.852100234179
 20
0.30572428605403
 10
44.8358068257308
 20
0.31703852020152
 10
44.819467919983296
 20
0.32828695174460004
 10
44.8030837826856
 20
0.33946939772981
 10
44.786654680322194
 20
0.35058567627695003
 10
44.7701808801092
 20
0.36163560658199
 10
44.7536626499896
 20
0.37261900892008
 10
44.7371002586291
 20
0.38353570464839
 10
44.7204939754116
 20
0.39438551620908996
 10
44.703844070434805
 20
0.40516826713221
 10
44.687150814506204
 20
0.41588378203848003
 10
44.6704144791382
 20
0.42653188664224
 10
44.6536353365438
 20
0.43711240775422
 10
44.6368136596324
 20
0.4476251732844
 10
44.619949722005195
 20
0.45807001224479
 10
44.603043797950605
 20
0.46844675475219
 10
44.5860961624401
 20
0.478755232031
 10
44.5691070911236
 20
0.48899527641594004
 10
44.5520768603248
 20
0.49916672135475004
 10
44.535005747037
 20
0.50926940141096
 10
44.5178940289183
 20
0.5193031522665199
 10
44.5007419842874
 20
0.52926781072452
 10
44.483549892118894
 20
0.5391632147118101
 10
44.4663180320385
 20
0.54898920328165
 10
44.4490466843191
 20
0.55874561661634
 10
44.431736129875496
 20
0.56843229602979
 10
44.414386650260404
 20
0.5780490839701401
 10
44.3969985276596
 20
0.5875958240222701
 10
44.379572044887304
 20
0.5970723609104099
 10
44.3621074853818
 20
0.6064785405006
 10
44.3446051332006
 20
0.61581420980325
 10
44.3270652730159
 20
0.62507921697559
 10
44.3094881901099
 20
0.6342734113241499
 10
44.291874170370306
 20
0.64339664330725
 10
44.2742235002856
 20
0.65244876453735
 10
44.2565364669403
 20
0.66142962778356
 10
44.238813358010404
 20
0.6703390869739401
 10
44.2210544617588
 20
0.67917699719797
 10
44.2032600670303
 20
0.6879432147088199
 10
44.185430463246895
 20
0.69663759692574
 10
44.167565940403804
 20
0.70526000243638
 10
44.1496667890636
 20
0.71381029099907
 10
44.1317333003525
 20
0.72228832354509
 10
44.1137657659549
 20
0.73069396218097
 10
44.095764478109295
 20
0.7390270701907
 10
44.0777297296028
 20
0.7472875120379799
 10
44.059661813767
 20
0.75547515336839
 10
44.041561024472905
 20
0.76358986101161
 10
44.0234276561262
 20
0.77163150298358
 10
44.0052620036624
 20
0.7795999484886199
 10
43.9870643625421
 20
0.78749506792157
 10
43.9688350287462
 20
0.79531673286994
 10
43.9505742987713
 20
0.80306481611592
 10
43.9322824696243
 20
0.8107391916385099
 10
43.9139598388182
 20
0.81833973461556
 10
43.8956067043668
 20
0.8258663214257901
 10
43.8772233647801
 20
0.83331882965077
 10
43.8588101190594
 20
0.84069713807699
 10
43.8403672666923
 20
0.84800112669774
 10
43.8218951076483
 20
0.8552306767151601
 10
43.803393942373
 20
0.8623856705420601
 10
43.7848640717844
 20
0.86946599180393
 10
43.766305797266895
 20
0.87647152534078
 10
43.747719420666996
 20
0.88340215720903
 10
43.729105244288505
 20
0.89025777468337
 10
43.7104635708872
 20
0.89703826625856
 10
43.691794703666
 20
0.90374352165129
 10
43.6730989462703
 20
0.9103734318019401
 10
43.6543766027828
 20
0.91692788887637
 10
43.6356279777187
 20
0.92340678626767
 10
43.6168533760204
 20
0.92981001859789
 10
43.5980531030531
 20
0.93613748171975
 10
43.5792274645994
 20
0.9423890727183499
 10
43.5603767668544
 20
0.94856468991284
 10
43.541501316421
 20
0.95466423285805
 10
43.522601420304596
 20
0.9606876023461499
 10
43.503677385908
 20
0.9666347004082799
 10
43.4847295210268
 20
0.9725054303160799
 10
43.4657581338444
 20
0.97829969658332
 10
43.4467635329263
 20
0.9840174049674499
 10
43.427746027215896
 20
0.9896584624710901
 10
43.4087059260291
 20
0.9952227773435999
 10
43.3896435390492
 20
1.0007102590825099
 10
43.3705591763222
 20
1.00612081843506
 10
43.351453148251295
 20
1.0114543673996002
 10
43.3323257655921
 20
1.01671081922703
 10
43.3131773394477
 20
1.02189008842223
 10
43.2940081812634
 20
1.02699209074545
 10
43.2748186028215
 20
1.03201674321365
 10
43.255608916236696
 20
1.03696396410189
 10
43.2363794339506
 20
1.0418336729446
 10
43.2171304687268
 20
1.04662579053698
 10
43.197862333646
 20
1.05134023893621
 10
43.178575342100196
 20
1.05597694146273
 10
43.1592698077887
 20
1.06053582270152
 10
43.1399460447119
 20
1.06501680850331
 10
43.1206043671669
 20
1.0694198259857701
 10
43.1012450897423
 20
1.0737448035347201
 10
43.0818685273126
 20
1.07799167080527
 10
43.0624749950339
 20
1.082160358723
 10
43.043064808337796
 20
1.0862507994850301
 10
43.0236382829272
 20
1.09026292656119
 10
43.004195734770505
 20
1.09419667469504
 10
42.984737480096996
 20
1.09805197990496
 10
42.965263835391006
 20
1.1018287794852
 10
42.9457751173875
 20
1.1055270120068799
 10
42.9262716430665
 20
1.10914661731901
 10
42.9067537296482
 20
1.11268753654943
 10
42.887221694587204
 20
1.11614971210581
 10
42.8676758555684
 20
1.11953308767658
 10
42.8481165305007
 20
1.12283760823181
 10
42.8285440375126
 20
1.12606322002415
 10
42.808958694946696
 20
1.12920987058968
 10
42.7893608213547
 20
1.13227750874876
 10
42.769750735492
 20
1.13526608460689
 10
42.7501287563126
 20
1.13817554955549
 10
42.730495202964
 20
1.1410058562727
 10
42.7108503947821
 20
1.14375695872415
 10
42.6911946512855
 20
1.14642881216373
 10
42.6715282921711
 20
1.14902137313427
 10
42.6518516373081
 20
1.15153459946831
 10
42.6321650067333
 20
1.15396845028873
 10
42.6124687206458
 20
1.1563228860094301
 10
42.5927630994017
 20
1.158597868336
 10
42.573048463508805
 20
1.16079336026632
 10
42.5533251336218
 20
1.1629093260911498
 10
42.5335934305366
 20
1.16494573139473
 10
42.5138536751853
 20
1.1669025430553601
 10
42.4941061886311
 20
1.1687797292458801
 10
42.4743512920627
 20
1.17057725943425
 10
42.4545893067897
 20
1.172295104384
 10
42.4348205542366
 20
1.17393323615472
 10
42.415045355938204
 20
1.17549162810255
 10
42.395264033534104
 20
1.17697025488056
 10
42.3754769087634
 20
1.17836909243917
 10
42.3556843034599
 20
1.17968811802658
 10
42.335886539546
 20
1.1809273101890998
 10
42.316083939028495
 20
1.18208664877154
 10
42.2962768239927
 20
1.1831661149174701
 10
42.2764655165972
 20
1.18416569106961
 10
42.2566503390689
 20
1.18508536097005
 10
42.2368316136976
 20
1.1859251096605399
 10
42.217009662830996
 20
1.1866849234827501
 10
42.197184808868904
 20
1.1873647900784599
 10
42.1773573742587
 20
1.18796469838977
 10
42.157527681489604
 20
1.1884846386593
 10
42.1376960530873
 20
1.1889246024303202
 10
42.1178628116095
 20
1.18928458254692
 10
42.0980282796396
 20
1.18956457315409
 10
42.0781927797824
 20
1.18976456969784
 10
42.058356634658104
 20
1.18988456892526
 10
42.0385201668978
 20
1.1899245688846
  0
LWPOLYLINE
  5
33
330
17
100
AcDbEntity
  8
joints
100
AcDbPolyline
 90
2
 70
0
 10
0.0
 20
0.0
 10
57.4233956133225
 20
-38.4714053614947
  0
LWPOLYLINE
  5
34
330
17
100
AcDbEntity
  8
joints
100
AcDbPolyline
 90
2
 70
0
 10
-51.2952071486596
 20
-22.5835093419984
 10
0.0
 20
0.0
  0
LWPOLYLINE
  5
35
330
17
100
AcDbEntity
  8
joints
100
AcDbPolyline
 90
2
 70
0
 10
-17.703655564581698
 20
37.790495532087704
 10
0.0
 20
1e-14
  0
LWPOLYLINE
  5
36
330
17
100
AcDbEntity
  8
joints
100
AcDbPolyline
 90
2
 70
0
 10
0.0
 20
0.0
 10
6.58212835093419
 20
-63.438099106417496
  0
LWPOLYLINE
  5
37
330
17
100
AcDbEntity
  8
joints
100
AcDbPolyline
 90
2
 70
0
 10
0.0
 20
1e-14
 10
66.0482534524777
 20
37.790495532087704
  0
ENDSEC
  0
SECTION
  2
OBJECTS
  0
DICTIONARY
  5
A
330
0
100
AcDbDictionary
281
1
  3
ACAD_COLOR
350
B
  3
ACAD_GROUP
350
C
  3
ACAD_LAYOUT
350
D
  3
ACAD_MATERIAL
350
E
  3
ACAD_MLEADERSTYLE
350
F
  3
ACAD_MLINESTYLE
350
10
  3
ACAD_PLOTSETTINGS
350
11
  3
ACAD_PLOTSTYLENAME
350
12
  3
ACAD_SCALELIST
350
14
  3
ACAD_TABLESTYLE
350
15
  3
ACAD_VISUALSTYLE
350
16
  0
DICTIONARY
  5
B
330
A
100
AcDbDictionary
281
1
  0
DICTIONARY
  5
C
330
A
100
AcDbDictionary
281
1
  0
DICTIONARY
  5
D
330
A
100
AcDbDictionary
281
1
  3
Model
350
1A
  3
Layout1
350
1E
  0
DICTIONARY
  5
E
330
A
100
AcDbDictionary
281
1
  3
ByBlock
350
1F
  3
ByLayer
350
20
  3
Global
350
21
  0
DICTIONARY
  5
F
330
A
100
AcDbDictionary
281
1
  3
Standard
350
2C
  0
DICTIONARY
  5
10
330
A
100
AcDbDictionary
281
1
  3
Standard
350
22
  0
DICTIONARY
  5
11
330
A
100
AcDbDictionary
281
1
  0
ACDBDICTIONARYWDFLT
  5
12
330
A
100
AcDbDictionary
281
1
  3
Normal
350
13
100
AcDbDictionaryWithDefault
340
13
  0
ACDBPLACEHOLDER
  5
13
330
12
  0
DICTIONARY
  5
14
330
A
100
AcDbDictionary
281
1
  0
DICTIONARY
  5
15
330
A
100
AcDbDictionary
281
1
  0
DICTIONARY
  5
16
330
A
100
AcDbDictionary
281
1
  0
LAYOUT
  5
1A
330
D
100
AcDbPlotSettings
  1

  2
Adobe PDF
  4
A4
  6

 40
3.175
 41
3.175
 42
3.175
 43
3.175
 44
209.91
 45
297.03
 46
0.0
 47
0.0
 48
0.0
 49
0.0
140
0.0
141
0.0
142
1.0
143
1.0
 70
1024
 72
0
 73
1
 74
5
  7

 75
16
 76
0
 77
2
 78
300
147
1.0
148
0.0
149
0.0
100
AcDbLayout
  1
Model
 70
1
 71
0
 10
-3.175
 20
-3.175
 11
293.857
 21
206.735
 12
0.0
 22
0.0
 32
0.0
 14
29.068
 24
20.356
 34
0.0
 15
261.614
 25
183.204
 35
0.0
146
0.0
 13
0.0
 23
0.0
 33
0.0
 16
1.0
 26
0.0
 36
0.0
 17
0.0
 27
1.0
 37
0.0
 76
1
330
17
  0
LAYOUT
  5
1E
330
D
100
AcDbPlotSettings
  1

  2
Adobe PDF
  4
A4
  6

 40
3.175
 41
3.175
 42
3.175
 43
3.175
 44
209.91
 45
297.03
 46
0.0
 47
0.0
 48
0.0
 49
0.0
140
0.0
141
0.0
142
1.0
143
1.0
 70
0
 72
0
 73
1
 74
5
  7

 75
16
 76
0
 77
2
 78
300
147
1.0
148
0.0
149
0.0
100
AcDbLayout
  1
Layout1
 70
1
 71
1
 10
-3.175
 20
-3.175
 11
293.857
 21
206.735
 12
0.0
 22
0.0
 32
0.0
 14
29.068
 24
20.356
 34
0.0
 15
261.614
 25
183.204
 35
0.0
146
0.0
 13
0.0
 23
0.0
 33
0.0
 16
1.0
 26
0.0
 36
0.0
 17
0.0
 27
1.0
 37
0.0
 76
1
330
1B
  0
MATERIAL
  5
1F
102
{ACAD_REACTORS
330
E
102
}
330
E
100
AcDbMaterial
  1
ByBlock
  2

 70
0
 40
1.0
 71
1
 41
1.0
 91
-1023410177
 42
1.0
 72
1
  3

 73
1
 74
1
 75
1
 44
0.5
 73
0
 45
1.0
 46
1.0
 77
1
  4

 78
1
 79
1
170
1
 48
1.0
171
1
  6

172
1
173
1
174
1
140
1.0
141
1.0
175
1
  7

176
1
177
1
178
1
143
1.0
179
1
  8

270
1
271
1
272
1
145
1.0
146
1.0
273
1
  9

274
1
275
1
276
1
 42
1.0
 72
1
  3

 73
1
 74
1
 75
1
 94
63
  0
MATERIAL
  5
20
102
{ACAD_REACTORS
330
E
102
}
330
E
100
AcDbMaterial
  1
ByLayer
  2

 70
0
 40
1.0
 71
1
 41
1.0
 91
-1023410177
 42
1.0
 72
1
  3

 73
1
 74
1
 75
1
 44
0.5
 73
0
 45
1.0
 46
1.0
 77
1
  4

 78
1
 79
1
170
1
 48
1.0
171
1
  6

172
1
173
1
174
1
140
1.0
141
1.0
175
1
  7

176
1
177
1
178
1
143
1.0
179
1
  8

270
1
271
1
272
1
145
1.0
146
1.0
273
1
  9

274
1
275
1
276
1
 42
1.0
 72
1
  3

 73
1
 74
1
 75
1
 94
63
  0
MATERIAL
  5
21
102
{ACAD_REACTORS
330
E
102
}
330
E
100
AcDbMaterial
  1
Global
  2

 70
0
 40
1.0
 71
1
 41
1.0
 91
-1023410177
 42
1.0
 72
1
  3

 73
1
 74
1
 75
1
 44
0.5
 73
0
 45
1.0
 46
1.0
 77
1
  4

 78
1
 79
1
170
1
 48
1.0
171
1
  6

172
1
173
1
174
1
140
1.0
141
1.0
175
1
  7

176
1
177
1
178
1
143
1.0
179
1
  8

270
1
271
1
272
1
145
1.0
146
1.0
273
1
  9

274
1
275
1
276
1
 42
1.0
 72
1
  3

 73
1
 74
1
 75
1
 94
63
  0
MLINESTYLE
  5
22
102
{ACAD_REACTORS
330
10
102
}
330
10
100
AcDbMlineStyle
  2
Standard
 70
0
  3

 62
256
 51
90.0
 52
90.0
 71
2
 49
0.5
 62
256
  6
BYLAYER
 49
-0.5
 62
256
  6
BYLAYER
  0
MLEADERSTYLE
  5
2C
102
{ACAD_REACTORS
330
F
102
}
330
F
100
AcDbMLeaderStyle
179
2
170
2
171
1
172
0
 90
2
 40
0.0
 41
0.0
173
1
 91
-1056964608
 92
-2
290
1
 42
2.0
291
1
 43
8.0
  3
Standard
 44
4.0
300

342
29
174
1
175
1
176
0
178
1
 93
-1056964608
 45
4.0
292
0
297
0
 46
4.0
 94
-1056964608
 47
1.0
 49
0.0
140
1.0
294
1
141
0.0
177
0
142
1.0
295
0
296
0
143
3.75
271
0
272
9
272
9
  0
ENDSEC
  0
EOF
