
<svg width="100.000000" height="100.000000">
    <path d="M 98.214282 58.332881 L 99.000000 60.647532 L 98.840130 63.086673 L 97.759011 65.278966 L 95.921233 66.890655 L 41.667119 98.214282 L 39.352468 99.000000 L 36.913327 98.840130 L 34.721034 97.759011 L 33.109345 95.921233 L 1.785718 41.667119 L 1.000000 39.352468 L 1.159870 36.913327 L 2.240989 34.721034 L 4.078767 33.109345 L 58.332881 1.785718 L 60.647532 1.000000 L 63.086673 1.159870 L 65.278966 2.240989 L 66.890655 4.078767 L 98.214282 58.332881 z M 58.131574 45.305234 L 57.632251 44.530807 L 57.059425 43.809051 L 56.418612 43.146917 L 55.715985 42.550783 L 54.958310 42.026388 L 54.152884 41.578784 L 53.307463 41.212281 L 52.430190 40.930408 L 51.529512 40.735880 L 50.614105 40.630571 L 49.692783 40.615494 L 48.774420 40.690796 L 47.867860 40.855750 L 46.981834 41.108768 L 46.124874 41.447414 L 45.305234 41.868426 L 44.530807 42.367749 L 43.809051 42.940575 L 43.146917 43.581388 L 42.550783 44.284015 L 42.026388 45.041690 L 41.578784 45.847116 L 41.212281 46.692537 L 40.930408 47.569810 L 40.735880 48.470488 L 40.630571 49.385895 L 40.615494 50.307217 L 40.690796 51.225580 L 40.855750 52.132140 L 41.108768 53.018166 L 41.447414 53.875126 L 41.868426 54.694766 L 42.367749 55.469193 L 42.940575 56.190949 L 43.581388 56.853083 L 44.284015 57.449217 L 45.041690 57.973612 L 45.847116 58.421216 L 46.692537 58.787719 L 47.569810 59.069592 L 48.470488 59.264120 L 49.385895 59.369429 L 50.307217 59.384506 L 51.225580 59.309204 L 52.132140 59.144250 L 53.018166 58.891232 L 53.875126 58.552586 L 54.694766 58.131574 L 55.469193 57.632251 L 56.190949 57.059425 L 56.853083 56.418612 L 57.449217 55.715985 L 57.973612 54.958310 L 58.421216 54.152884 L 58.787719 53.307463 L 59.069592 52.430190 L 59.264120 51.529512 L 59.369429 50.614105 L 59.384506 49.692783 L 59.309204 48.774420 L 59.144250 47.867860 L 58.891232 46.981834 L 58.552586 46.124874 L 58.131574 45.305234 z" style="opacity:1;fill:#0c0786;fill-opacity:0.25;fill-rule:evenodd;stroke:#808080;stroke-width:2px;stroke-linecap:round;stroke-linejoin:round;stroke-opacity:1"/>
    <path d="M 92.788870 61.465243 L 38.534757 92.788870 L 7.211130 38.534757 L 61.465243 7.211130 L 92.788870 61.465243 z M 63.563528 42.169093 L 63.563528 42.169093 L 62.730653 40.877343 L 61.775175 39.673449 L 60.706295 38.569005 L 59.534308 37.574648 L 58.270500 36.699954 L 56.927043 35.953346 L 55.516875 35.342016 L 54.053576 34.871850 L 52.551239 34.547376 L 51.024332 34.371720 L 49.487560 34.346572 L 47.955723 34.472175 L 46.443574 34.747320 L 44.965675 35.169357 L 43.536259 35.734221 L 42.169093 36.436472 L 40.877343 37.269347 L 39.673449 38.224825 L 38.569005 39.293705 L 37.574648 40.465692 L 36.699954 41.729500 L 35.953346 43.072957 L 35.342016 44.483125 L 34.871850 45.946424 L 34.547376 47.448761 L 34.371720 48.975668 L 34.346572 50.512440 L 34.472175 52.044277 L 34.747320 53.556426 L 35.169357 55.034325 L 35.734221 56.463741 L 36.436472 57.830907 L 37.269347 59.122657 L 38.224825 60.326551 L 39.293705 61.430995 L 40.465692 62.425352 L 41.729500 63.300046 L 43.072957 64.046654 L 44.483125 64.657984 L 45.946424 65.128150 L 47.448761 65.452624 L 48.975668 65.628280 L 50.512440 65.653428 L 52.044277 65.527825 L 53.556426 65.252680 L 55.034325 64.830643 L 56.463741 64.265779 L 57.830907 63.563528 L 59.122657 62.730653 L 60.326551 61.775175 L 61.430995 60.706295 L 62.425352 59.534308 L 63.300046 58.270500 L 64.046654 56.927043 L 64.657984 55.516875 L 65.128150 54.053576 L 65.452624 52.551239 L 65.628280 51.024332 L 65.653428 49.487560 L 65.527825 47.955723 L 65.252680 46.443574 L 64.830643 44.965675 L 64.265779 43.536259 L 63.563528 42.169093 z" style="opacity:1;fill:#cb4777;fill-opacity:0.25;fill-rule:evenodd;stroke:#808080;stroke-width:2px;stroke-linecap:round;stroke-linejoin:round;stroke-opacity:1"/>
    <path d="M 84.231096 59.172195 L 40.827805 84.231096 L 15.768904 40.827805 L 59.172195 15.768904 L 84.231096 59.172195 z M 69.136102 39.306716 L 68.988940 39.036731 L 68.828707 38.774291 L 67.995832 37.482541 L 67.637730 36.982810 L 66.682251 35.778916 L 66.276891 35.316692 L 65.208012 34.212248 L 64.759298 33.791981 L 63.587311 32.797624 L 63.099564 32.423363 L 61.835756 31.548669 L 61.313674 31.224018 L 59.970217 30.477410 L 59.418828 30.205495 L 58.008660 29.594165 L 57.433273 29.377605 L 55.969974 28.907439 L 55.376132 28.748319 L 53.873794 28.423845 L 53.267215 28.323699 L 51.740308 28.148042 L 51.126833 28.107833 L 49.590062 28.082685 L 48.975600 28.102801 L 47.443763 28.228404 L 46.834232 28.308650 L 45.322082 28.583795 L 44.723352 28.723400 L 43.245453 29.145436 L 42.663289 29.343054 L 41.233873 29.907918 L 40.673882 30.161647 L 39.306716 30.863898 L 38.774291 31.171293 L 37.482541 32.004168 L 36.982810 32.362270 L 35.778916 33.317749 L 35.316692 33.723109 L 34.212248 34.791988 L 33.791981 35.240702 L 32.797624 36.412689 L 32.423363 36.900436 L 31.548669 38.164244 L 31.224018 38.686326 L 30.477410 40.029783 L 30.205495 40.581172 L 29.594165 41.991340 L 29.377605 42.566727 L 28.907439 44.030026 L 28.748319 44.623868 L 28.423845 46.126206 L 28.323699 46.732785 L 28.148042 48.259692 L 28.107833 48.873167 L 28.082685 50.409938 L 28.102801 51.024400 L 28.228404 52.556237 L 28.308650 53.165768 L 28.583795 54.677918 L 28.723400 55.276648 L 29.145436 56.754547 L 29.343054 57.336711 L 29.907918 58.766127 L 30.161647 59.326118 L 30.863898 60.693284 L 31.171293 61.225709 L 32.004168 62.517459 L 32.362270 63.017190 L 33.317749 64.221084 L 33.723109 64.683308 L 34.791988 65.787752 L 35.240702 66.208019 L 36.412689 67.202376 L 36.900436 67.576637 L 38.164244 68.451331 L 38.686326 68.775982 L 40.029783 69.522590 L 40.581172 69.794505 L 41.991340 70.405835 L 42.566727 70.622395 L 44.030026 71.092561 L 44.623868 71.251681 L 46.126206 71.576155 L 46.732785 71.676301 L 48.259692 71.851958 L 48.873167 71.892167 L 50.409938 71.917315 L 51.024400 71.897199 L 52.556237 71.771596 L 53.165768 71.691350 L 54.677918 71.416205 L 55.276648 71.276600 L 56.754547 70.854564 L 57.336711 70.656946 L 58.766127 70.092082 L 59.326118 69.838353 L 60.693284 69.136102 L 61.225709 68.828707 L 62.517459 67.995832 L 63.017190 67.637730 L 64.221084 66.682251 L 64.683308 66.276891 L 65.787752 65.208012 L 66.208019 64.759298 L 67.202376 63.587311 L 67.576637 63.099564 L 68.451331 61.835756 L 68.775982 61.313674 L 69.522590 59.970217 L 69.794505 59.418828 L 70.405835 58.008660 L 70.622395 57.433273 L 71.092561 55.969974 L 71.251681 55.376132 L 71.576155 53.873794 L 71.676301 53.267215 L 71.851958 51.740308 L 71.892167 51.126833 L 71.917315 49.590062 L 71.897199 48.975600 L 71.771596 47.443763 L 71.691350 46.834232 L 71.416205 45.322082 L 71.276600 44.723352 L 70.854564 43.245453 L 70.656946 42.663289 L 70.092082 41.233873 L 69.838353 40.673882 L 69.136102 39.306716 z" style="opacity:1;fill:#eff821;fill-opacity:0.25;fill-rule:evenodd;stroke:#808080;stroke-width:2px;stroke-linecap:round;stroke-linejoin:round;stroke-opacity:1"/></svg>
