
<svg width="100.000000" height="100.000000">
    <path d="M 99.000000 99.000000 L 1.000000 99.000000 L 1.000000 1.000000 L 99.000000 1.000000 L 99.000000 99.000000 z M 74.500000 50.000000 L 74.500000 50.000000 L 74.382026 47.598580 L 74.029239 45.220287 L 73.445038 42.888025 L 72.635049 40.624256 L 71.607071 38.450780 L 70.371006 36.388529 L 68.938756 34.457365 L 67.324116 32.675884 L 65.542635 31.061244 L 63.611471 29.628994 L 61.549220 28.392929 L 59.375744 27.364951 L 57.111975 26.554962 L 54.779713 25.970761 L 52.401420 25.617974 L 50.000000 25.500000 L 47.598580 25.617974 L 45.220287 25.970761 L 42.888025 26.554962 L 40.624256 27.364951 L 38.450780 28.392929 L 36.388529 29.628994 L 34.457365 31.061244 L 32.675884 32.675884 L 31.061244 34.457365 L 29.628994 36.388529 L 28.392929 38.450780 L 27.364951 40.624256 L 26.554962 42.888025 L 25.970761 45.220287 L 25.617974 47.598580 L 25.500000 50.000000 L 25.617974 52.401420 L 25.970761 54.779713 L 26.554962 57.111975 L 27.364951 59.375744 L 28.392929 61.549220 L 29.628994 63.611471 L 31.061244 65.542635 L 32.675884 67.324116 L 34.457365 68.938756 L 36.388529 70.371006 L 38.450780 71.607071 L 40.624256 72.635049 L 42.888025 73.445038 L 45.220287 74.029239 L 47.598580 74.382026 L 50.000000 74.500000 L 52.401420 74.382026 L 54.779713 74.029239 L 57.111975 73.445038 L 59.375744 72.635049 L 61.549220 71.607071 L 63.611471 70.371006 L 65.542635 68.938756 L 67.324116 67.324116 L 68.938756 65.542635 L 70.371006 63.611471 L 71.607071 61.549220 L 72.635049 59.375744 L 73.445038 57.111975 L 74.029239 54.779713 L 74.382026 52.401420 L 74.500000 50.000000 z" style="opacity:1;fill:#00FF00;fill-opacity:1;fill-rule:evenodd;stroke:#808080;stroke-width:2px;stroke-linecap:round;stroke-linejoin:round;stroke-opacity:1"/></svg>
