
<svg width="100.000000" height="100.000000">
    <path d="M 99.000000 85.000000 L 98.865497 86.365632 L 98.332654 89.044416 L 97.287444 91.567776 L 95.770035 93.838739 L 93.838739 95.770035 L 91.567776 97.287444 L 89.044416 98.332654 L 86.365632 98.865497 L 85.000000 99.000000 L 15.000000 99.000000 L 13.634368 98.865497 L 10.955584 98.332654 L 8.432224 97.287444 L 6.161261 95.770035 L 4.229965 93.838739 L 2.712556 91.567776 L 1.667346 89.044416 L 1.134503 86.365632 L 1.000000 85.000000 L 1.000000 15.000000 L 1.134503 13.634368 L 1.667346 10.955584 L 2.712556 8.432224 L 4.229965 6.161261 L 6.161261 4.229965 L 8.432224 2.712556 L 10.955584 1.667346 L 13.634368 1.134503 L 15.000000 1.000000 L 85.000000 1.000000 L 86.365632 1.134503 L 89.044416 1.667346 L 91.567776 2.712556 L 93.838739 4.229965 L 95.770035 6.161261 L 97.287444 8.432224 L 98.332654 10.955584 L 98.865497 13.634368 L 99.000000 15.000000 L 99.000000 85.000000 z M 53.483116 50.000000 L 53.466344 49.658595 L 53.416189 49.320478 L 53.333134 48.988905 L 53.217980 48.667069 L 53.071834 48.358070 L 52.896105 48.064884 L 52.692485 47.790335 L 52.462935 47.537065 L 52.209665 47.307515 L 51.935116 47.103895 L 51.641930 46.928166 L 51.332931 46.782020 L 51.011095 46.666866 L 50.679522 46.583811 L 50.341405 46.533656 L 50.000000 46.516884 L 49.658595 46.533656 L 49.320478 46.583811 L 48.988905 46.666866 L 48.667069 46.782020 L 48.358070 46.928166 L 48.064884 47.103895 L 47.790335 47.307515 L 47.537065 47.537065 L 47.307515 47.790335 L 47.103895 48.064884 L 46.928166 48.358070 L 46.782020 48.667069 L 46.666866 48.988905 L 46.583811 49.320478 L 46.533656 49.658595 L 46.516884 50.000000 L 46.533656 50.341405 L 46.583811 50.679522 L 46.666866 51.011095 L 46.782020 51.332931 L 46.928166 51.641930 L 47.103895 51.935116 L 47.307515 52.209665 L 47.537065 52.462935 L 47.790335 52.692485 L 48.064884 52.896105 L 48.358070 53.071834 L 48.667069 53.217980 L 48.988905 53.333134 L 49.320478 53.416189 L 49.658595 53.466344 L 50.000000 53.483116 L 50.341405 53.466344 L 50.679522 53.416189 L 51.011095 53.333134 L 51.332931 53.217980 L 51.641930 53.071834 L 51.935116 52.896105 L 52.209665 52.692485 L 52.462935 52.462935 L 52.692485 52.209665 L 52.896105 51.935116 L 53.071834 51.641930 L 53.217980 51.332931 L 53.333134 51.011095 L 53.416189 50.679522 L 53.466344 50.341405 L 53.483116 50.000000 z" style="opacity:1;fill:#0c0786;fill-opacity:0.25;fill-rule:evenodd;stroke:#808080;stroke-width:2px;stroke-linecap:round;stroke-linejoin:round;stroke-opacity:1"/>
    <path d="M 92.000000 85.000000 L 91.467157 87.678784 L 89.949747 89.949747 L 87.678784 91.467157 L 85.000000 92.000000 L 15.000000 92.000000 L 12.321216 91.467157 L 10.050253 89.949747 L 8.532843 87.678784 L 8.000000 85.000000 L 8.000000 15.000000 L 8.532843 12.321216 L 10.050253 10.050253 L 12.321216 8.532843 L 15.000000 8.000000 L 85.000000 8.000000 L 87.678784 8.532843 L 89.949747 10.050253 L 91.467157 12.321216 L 92.000000 15.000000 L 92.000000 85.000000 z M 60.491558 50.000000 L 60.441038 48.971647 L 60.289966 47.953199 L 60.039795 46.954461 L 59.692936 45.985055 L 59.252728 45.054314 L 58.723412 44.171203 L 58.110084 43.344226 L 57.418652 42.581348 L 56.655774 41.889916 L 55.828797 41.276588 L 54.945686 40.747272 L 54.014945 40.307064 L 53.045539 39.960205 L 52.046801 39.710034 L 51.028353 39.558962 L 50.000000 39.508442 L 48.971647 39.558962 L 47.953199 39.710034 L 46.954461 39.960205 L 45.985055 40.307064 L 45.054314 40.747272 L 44.171203 41.276588 L 43.344226 41.889916 L 42.581348 42.581348 L 41.889916 43.344226 L 41.276588 44.171203 L 40.747272 45.054314 L 40.307064 45.985055 L 39.960205 46.954461 L 39.710034 47.953199 L 39.558962 48.971647 L 39.508442 50.000000 L 39.558962 51.028353 L 39.710034 52.046801 L 39.960205 53.045539 L 40.307064 54.014945 L 40.747272 54.945686 L 41.276588 55.828797 L 41.889916 56.655774 L 42.581348 57.418652 L 43.344226 58.110084 L 44.171203 58.723412 L 45.054314 59.252728 L 45.985055 59.692936 L 46.954461 60.039795 L 47.953199 60.289966 L 48.971647 60.441038 L 50.000000 60.491558 L 51.028353 60.441038 L 52.046801 60.289966 L 53.045539 60.039795 L 54.014945 59.692936 L 54.945686 59.252728 L 55.828797 58.723412 L 56.655774 58.110084 L 57.418652 57.418652 L 58.110084 56.655774 L 58.723412 55.828797 L 59.252728 54.945686 L 59.692936 54.014945 L 60.039795 53.045539 L 60.289966 52.046801 L 60.441038 51.028353 L 60.491558 50.000000 z" style="opacity:1;fill:#cb4777;fill-opacity:0.25;fill-rule:evenodd;stroke:#808080;stroke-width:2px;stroke-linecap:round;stroke-linejoin:round;stroke-opacity:1"/>
    <path d="M 85.000000 78.000000 L 84.467157 80.678784 L 82.949747 82.949747 L 80.678784 84.467157 L 78.000000 85.000000 L 22.000000 85.000000 L 19.321216 84.467157 L 17.050253 82.949747 L 15.532843 80.678784 L 15.000000 78.000000 L 15.000000 22.000000 L 15.532843 19.321216 L 17.050253 17.050253 L 19.321216 15.532843 L 22.000000 15.000000 L 78.000000 15.000000 L 80.678784 15.532843 L 82.949747 17.050253 L 84.467157 19.321216 L 85.000000 22.000000 L 85.000000 78.000000 z M 67.495785 50.085804 L 67.497891 50.000000 L 67.495785 49.914196 L 67.424165 48.456333 L 67.390518 48.114720 L 67.188957 46.755900 L 67.121989 46.419229 L 66.788210 45.086709 L 66.688565 44.758223 L 66.225783 43.464835 L 66.094421 43.147698 L 65.507093 41.905899 L 65.345279 41.603165 L 64.639062 40.424913 L 64.448353 40.139497 L 63.630048 39.036141 L 63.412282 38.770792 L 62.489770 37.752957 L 62.247043 37.510230 L 61.229208 36.587718 L 60.963859 36.369952 L 59.860503 35.551647 L 59.575087 35.360938 L 58.396835 34.654721 L 58.094101 34.492907 L 56.852302 33.905579 L 56.535165 33.774217 L 55.241777 33.311435 L 54.913291 33.211790 L 53.580771 32.878011 L 53.244100 32.811043 L 51.885280 32.609482 L 51.543667 32.575835 L 50.171633 32.508432 L 49.828367 32.508432 L 48.456333 32.575835 L 48.114720 32.609482 L 46.755900 32.811043 L 46.419229 32.878011 L 45.086709 33.211790 L 44.758223 33.311435 L 43.464835 33.774217 L 43.147698 33.905579 L 41.905899 34.492907 L 41.603165 34.654721 L 40.424913 35.360938 L 40.139497 35.551647 L 39.036141 36.369952 L 38.770792 36.587718 L 37.752957 37.510230 L 37.510230 37.752957 L 36.587718 38.770792 L 36.369952 39.036141 L 35.551647 40.139497 L 35.360938 40.424913 L 34.654721 41.603165 L 34.492907 41.905899 L 33.905579 43.147698 L 33.774217 43.464835 L 33.311435 44.758223 L 33.211790 45.086709 L 32.878011 46.419229 L 32.811043 46.755900 L 32.609482 48.114720 L 32.575835 48.456333 L 32.508432 49.828367 L 32.508432 50.171633 L 32.575835 51.543667 L 32.609482 51.885280 L 32.811043 53.244100 L 32.878011 53.580771 L 33.211790 54.913291 L 33.311435 55.241777 L 33.774217 56.535165 L 33.905579 56.852302 L 34.492907 58.094101 L 34.654721 58.396835 L 35.360938 59.575087 L 35.551647 59.860503 L 36.369952 60.963859 L 36.587718 61.229208 L 37.510230 62.247043 L 37.752957 62.489770 L 38.770792 63.412282 L 39.036141 63.630048 L 40.139497 64.448353 L 40.424913 64.639062 L 41.603165 65.345279 L 41.905899 65.507093 L 43.147698 66.094421 L 43.464835 66.225783 L 44.758223 66.688565 L 45.086709 66.788210 L 46.419229 67.121989 L 46.755900 67.188957 L 48.114720 67.390518 L 48.456333 67.424165 L 49.828367 67.491568 L 50.171633 67.491568 L 51.543667 67.424165 L 51.885280 67.390518 L 53.244100 67.188957 L 53.580771 67.121989 L 54.913291 66.788210 L 55.241777 66.688565 L 56.535165 66.225783 L 56.852302 66.094421 L 58.094101 65.507093 L 58.396835 65.345279 L 59.575087 64.639062 L 59.860503 64.448353 L 60.963859 63.630048 L 61.229208 63.412282 L 62.247043 62.489770 L 62.489770 62.247043 L 63.412282 61.229208 L 63.630048 60.963859 L 64.448353 59.860503 L 64.639062 59.575087 L 65.345279 58.396835 L 65.507093 58.094101 L 66.094421 56.852302 L 66.225783 56.535165 L 66.688565 55.241777 L 66.788210 54.913291 L 67.121989 53.580771 L 67.188957 53.244100 L 67.390518 51.885280 L 67.424165 51.543667 L 67.495785 50.085804 z" style="opacity:1;fill:#eff821;fill-opacity:0.25;fill-rule:evenodd;stroke:#808080;stroke-width:2px;stroke-linecap:round;stroke-linejoin:round;stroke-opacity:1"/></svg>
