
<svg width="100.000000" height="100.000000">
    <path d="M 99.000000 85.000000 L 97.934313 90.357568 L 94.899495 94.899495 L 90.357568 97.934313 L 85.000000 99.000000 L 15.000000 99.000000 L 9.642432 97.934313 L 5.100505 94.899495 L 2.065687 90.357568 L 1.000000 85.000000 L 1.000000 15.000000 L 2.065687 9.642432 L 5.100505 5.100505 L 9.642432 2.065687 L 15.000000 1.000000 L 85.000000 1.000000 L 90.357568 2.065687 L 94.899495 5.100505 L 97.934313 9.642432 L 99.000000 15.000000 L 99.000000 85.000000 z M 53.483116 50.000000 L 53.466344 49.658595 L 53.416189 49.320478 L 53.333134 48.988905 L 53.217980 48.667069 L 53.071834 48.358070 L 52.896105 48.064884 L 52.692485 47.790335 L 52.462935 47.537065 L 52.209665 47.307515 L 51.935116 47.103895 L 51.641930 46.928166 L 51.332931 46.782020 L 51.011095 46.666866 L 50.679522 46.583811 L 50.341405 46.533656 L 50.000000 46.516884 L 49.658595 46.533656 L 49.320478 46.583811 L 48.988905 46.666866 L 48.667069 46.782020 L 48.358070 46.928166 L 48.064884 47.103895 L 47.790335 47.307515 L 47.537065 47.537065 L 47.307515 47.790335 L 47.103895 48.064884 L 46.928166 48.358070 L 46.782020 48.667069 L 46.666866 48.988905 L 46.583811 49.320478 L 46.533656 49.658595 L 46.516884 50.000000 L 46.533656 50.341405 L 46.583811 50.679522 L 46.666866 51.011095 L 46.782020 51.332931 L 46.928166 51.641930 L 47.103895 51.935116 L 47.307515 52.209665 L 47.537065 52.462935 L 47.790335 52.692485 L 48.064884 52.896105 L 48.358070 53.071834 L 48.667069 53.217980 L 48.988905 53.333134 L 49.320478 53.416189 L 49.658595 53.466344 L 50.000000 53.483116 L 50.341405 53.466344 L 50.679522 53.416189 L 51.011095 53.333134 L 51.332931 53.217980 L 51.641930 53.071834 L 51.935116 52.896105 L 52.209665 52.692485 L 52.462935 52.462935 L 52.692485 52.209665 L 52.896105 51.935116 L 53.071834 51.641930 L 53.217980 51.332931 L 53.333134 51.011095 L 53.416189 50.679522 L 53.466344 50.341405 L 53.483116 50.000000 z" style="opacity:1;fill:#00FF00;fill-opacity:1;fill-rule:evenodd;stroke:#808080;stroke-width:2px;stroke-linecap:round;stroke-linejoin:round;stroke-opacity:1"/></svg>
