
<svg width="100.000000" height="100.000000">
    <path d="M 59.180113 50.000000 L 59.135909 49.100192 L 59.003720 48.209049 L 58.784821 47.335154 L 58.481319 46.486923 L 58.096137 45.672525 L 57.632985 44.899802 L 57.096324 44.176198 L 56.491320 43.508680 L 55.823802 42.903676 L 55.100198 42.367015 L 54.327475 41.903863 L 53.513077 41.518681 L 52.664846 41.215179 L 51.790951 40.996280 L 50.899808 40.864091 L 50.000000 40.819887 L 49.100192 40.864091 L 48.209049 40.996280 L 47.335154 41.215179 L 46.486923 41.518681 L 45.672525 41.903863 L 44.899802 42.367015 L 44.176198 42.903676 L 43.508680 43.508680 L 42.903676 44.176198 L 42.367015 44.899802 L 41.903863 45.672525 L 41.518681 46.486923 L 41.215179 47.335154 L 40.996280 48.209049 L 40.864091 49.100192 L 40.819887 50.000000 L 40.864091 50.899808 L 40.996280 51.790951 L 41.215179 52.664846 L 41.518681 53.513077 L 41.903863 54.327475 L 42.367015 55.100198 L 42.903676 55.823802 L 43.508680 56.491320 L 44.176198 57.096324 L 44.899802 57.632985 L 45.672525 58.096137 L 46.486923 58.481319 L 47.335154 58.784821 L 48.209049 59.003720 L 49.100192 59.135909 L 50.000000 59.180113 L 50.899808 59.135909 L 51.790951 59.003720 L 52.664846 58.784821 L 53.513077 58.481319 L 54.327475 58.096137 L 55.100198 57.632985 L 55.823802 57.096324 L 56.491320 56.491320 L 57.096324 55.823802 L 57.632985 55.100198 L 58.096137 54.327475 L 58.481319 53.513077 L 58.784821 52.664846 L 59.003720 51.790951 L 59.135909 50.899808 L 59.180113 50.000000 z" style="opacity:1;fill:#0c0786;fill-opacity:0.25;fill-rule:evenodd;stroke:#808080;stroke-width:2px;stroke-linecap:round;stroke-linejoin:round;stroke-opacity:1"/>
    <path d="M 99.000000 99.000000 L 99.000000 1.000000 L 1.000000 1.000000 L 1.000000 99.000000 L 99.000000 99.000000 z M 86.750000 80.625000 L 86.283762 82.968936 L 84.956029 84.956029 L 82.968936 86.283762 L 80.625000 86.750000 L 19.375000 86.750000 L 17.031064 86.283762 L 15.043971 84.956029 L 13.716238 82.968936 L 13.250000 80.625000 L 13.250000 19.375000 L 13.716238 17.031064 L 15.043971 15.043971 L 17.031064 13.716238 L 19.375000 13.250000 L 80.625000 13.250000 L 82.968936 13.716238 L 84.956029 15.043971 L 86.283762 17.031064 L 86.750000 19.375000 L 86.750000 80.625000 z" style="opacity:1;fill:#0c0786;fill-opacity:0.25;fill-rule:evenodd;stroke:#808080;stroke-width:2px;stroke-linecap:round;stroke-linejoin:round;stroke-opacity:1"/>
    <path d="M 99.000000 99.000000 L 99.000000 1.000000 L 1.000000 1.000000 L 1.000000 99.000000 L 99.000000 99.000000 z M 80.625000 80.625000 L 19.375000 80.625000 L 19.375000 19.375000 L 80.625000 19.375000 L 80.625000 80.625000 z" style="opacity:1;fill:#cb4777;fill-opacity:0.25;fill-rule:evenodd;stroke:#808080;stroke-width:2px;stroke-linecap:round;stroke-linejoin:round;stroke-opacity:1"/>
    <path d="M 65.312500 50.000000 L 65.312500 50.000000 L 65.238766 48.499113 L 65.018275 47.012679 L 64.653149 45.555016 L 64.146905 44.140160 L 63.504419 42.781737 L 62.731878 41.492831 L 61.836723 40.285853 L 60.827573 39.172427 L 59.714147 38.163277 L 58.507169 37.268122 L 57.218263 36.495581 L 55.859840 35.853095 L 54.444984 35.346851 L 52.987321 34.981725 L 51.500887 34.761234 L 50.000000 34.687500 L 48.499113 34.761234 L 47.012679 34.981725 L 45.555016 35.346851 L 44.140160 35.853095 L 42.781737 36.495581 L 41.492831 37.268122 L 40.285853 38.163277 L 39.172427 39.172427 L 38.163277 40.285853 L 37.268122 41.492831 L 36.495581 42.781737 L 35.853095 44.140160 L 35.346851 45.555016 L 34.981725 47.012679 L 34.761234 48.499113 L 34.687500 50.000000 L 34.761234 51.500887 L 34.981725 52.987321 L 35.346851 54.444984 L 35.853095 55.859840 L 36.495581 57.218263 L 37.268122 58.507169 L 38.163277 59.714147 L 39.172427 60.827573 L 40.285853 61.836723 L 41.492831 62.731878 L 42.781737 63.504419 L 44.140160 64.146905 L 45.555016 64.653149 L 47.012679 65.018275 L 48.499113 65.238766 L 50.000000 65.312500 L 51.500887 65.238766 L 52.987321 65.018275 L 54.444984 64.653149 L 55.859840 64.146905 L 57.218263 63.504419 L 58.507169 62.731878 L 59.714147 61.836723 L 60.827573 60.827573 L 61.836723 59.714147 L 62.731878 58.507169 L 63.504419 57.218263 L 64.146905 55.859840 L 64.653149 54.444984 L 65.018275 52.987321 L 65.238766 51.500887 L 65.312500 50.000000 z" style="opacity:1;fill:#cb4777;fill-opacity:0.25;fill-rule:evenodd;stroke:#808080;stroke-width:2px;stroke-linecap:round;stroke-linejoin:round;stroke-opacity:1"/>
    <path d="M 71.430122 50.300540 L 71.437500 50.000000 L 71.430122 49.699460 L 71.356388 48.198573 L 71.297472 47.600388 L 71.076981 46.113955 L 70.959716 45.524426 L 70.594590 44.066762 L 70.420106 43.491566 L 69.913863 42.076710 L 69.683840 41.521385 L 69.041354 40.162963 L 68.758007 39.632858 L 67.985466 38.343951 L 67.651525 37.844173 L 66.756369 36.637195 L 66.375048 36.172554 L 65.365898 35.059129 L 64.940871 34.634102 L 63.827446 33.624952 L 63.362805 33.243631 L 62.155827 32.348475 L 61.656049 32.014534 L 60.367142 31.241993 L 59.837037 30.958646 L 58.478615 30.316160 L 57.923290 30.086137 L 56.508434 29.579894 L 55.933238 29.405410 L 54.475574 29.040284 L 53.886045 28.923019 L 52.399612 28.702528 L 51.801427 28.643612 L 50.300540 28.569878 L 49.699460 28.569878 L 48.198573 28.643612 L 47.600388 28.702528 L 46.113955 28.923019 L 45.524426 29.040284 L 44.066762 29.405410 L 43.491566 29.579894 L 42.076710 30.086137 L 41.521385 30.316160 L 40.162963 30.958646 L 39.632858 31.241993 L 38.343951 32.014534 L 37.844173 32.348475 L 36.637195 33.243631 L 36.172554 33.624952 L 35.059129 34.634102 L 34.634102 35.059129 L 33.624952 36.172554 L 33.243631 36.637195 L 32.348475 37.844173 L 32.014534 38.343951 L 31.241993 39.632858 L 30.958646 40.162963 L 30.316160 41.521385 L 30.086137 42.076710 L 29.579894 43.491566 L 29.405410 44.066762 L 29.040284 45.524426 L 28.923019 46.113955 L 28.702528 47.600388 L 28.643612 48.198573 L 28.569878 49.699460 L 28.569878 50.300540 L 28.643612 51.801427 L 28.702528 52.399612 L 28.923019 53.886045 L 29.040284 54.475574 L 29.405410 55.933238 L 29.579894 56.508434 L 30.086137 57.923290 L 30.316160 58.478615 L 30.958646 59.837037 L 31.241993 60.367142 L 32.014534 61.656049 L 32.348475 62.155827 L 33.243631 63.362805 L 33.624952 63.827446 L 34.634102 64.940871 L 35.059129 65.365898 L 36.172554 66.375048 L 36.637195 66.756369 L 37.844173 67.651525 L 38.343951 67.985466 L 39.632858 68.758007 L 40.162963 69.041354 L 41.521385 69.683840 L 42.076710 69.913863 L 43.491566 70.420106 L 44.066762 70.594590 L 45.524426 70.959716 L 46.113955 71.076981 L 47.600388 71.297472 L 48.198573 71.356388 L 49.699460 71.430122 L 50.300540 71.430122 L 51.801427 71.356388 L 52.399612 71.297472 L 53.886045 71.076981 L 54.475574 70.959716 L 55.933238 70.594590 L 56.508434 70.420106 L 57.923290 69.913863 L 58.478615 69.683840 L 59.837037 69.041354 L 60.367142 68.758007 L 61.656049 67.985466 L 62.155827 67.651525 L 63.362805 66.756369 L 63.827446 66.375048 L 64.940871 65.365898 L 65.365898 64.940871 L 66.375048 63.827446 L 66.756369 63.362805 L 67.651525 62.155827 L 67.985466 61.656049 L 68.758007 60.367142 L 69.041354 59.837037 L 69.683840 58.478615 L 69.913863 57.923290 L 70.420106 56.508434 L 70.594590 55.933238 L 70.959716 54.475574 L 71.076981 53.886045 L 71.297472 52.399612 L 71.356388 51.801427 L 71.430122 50.300540 z" style="opacity:1;fill:#eff821;fill-opacity:0.25;fill-rule:evenodd;stroke:#808080;stroke-width:2px;stroke-linecap:round;stroke-linejoin:round;stroke-opacity:1"/>
    <path d="M 99.000000 99.000000 L 99.000000 1.000000 L 1.000000 1.000000 L 1.000000 99.000000 L 99.000000 99.000000 z M 74.500000 74.500000 L 25.500000 74.500000 L 25.500000 25.500000 L 74.500000 25.500000 L 74.500000 74.500000 z" style="opacity:1;fill:#eff821;fill-opacity:0.25;fill-rule:evenodd;stroke:#808080;stroke-width:2px;stroke-linecap:round;stroke-linejoin:round;stroke-opacity:1"/></svg>
