
<svg width="166.964098" height="100.000000">
    <path d="M 1.000000 1.000000 L 81.828902 1.000000 L 82.258479 1.666255 L 83.678958 3.456045 L 85.268026 5.097985 L 87.010382 6.576263 L 88.889243 7.876643 L 90.886517 8.986600 L 92.982969 9.895445 L 95.158407 10.594425 L 97.391883 11.076810 L 99.661886 11.337952 L 101.946554 11.375338 L 104.223886 11.188608 L 106.471949 10.779559 L 108.669093 10.152131 L 110.794158 9.312367 L 112.826679 8.268353 L 114.747082 7.030145 L 116.536873 5.609666 L 118.178813 4.020598 L 119.657091 2.278243 L 120.541776 1.000000 L 150.429003 1.000000 L 156.374027 2.182539 L 161.413974 5.550124 L 164.781559 10.590071 L 165.964098 16.535095 L 165.964098 58.333804 L 95.528181 99.000000 L 95.590042 98.753034 L 95.925318 96.492791 L 96.037436 94.210569 L 95.925318 91.928347 L 95.590042 89.668104 L 95.034839 87.451607 L 94.265054 85.300203 L 93.288102 83.234611 L 92.113390 81.274723 L 90.752233 79.439415 L 89.217738 77.746360 L 87.524683 76.211865 L 85.689375 74.850708 L 83.729487 73.675996 L 81.663895 72.699044 L 79.512491 71.929259 L 77.295994 71.374056 L 75.035751 71.038780 L 72.753529 70.926662 L 70.471307 71.038780 L 68.211064 71.374056 L 65.994568 71.929259 L 63.843164 72.699044 L 61.777572 73.675996 L 59.817684 74.850708 L 57.982375 76.211865 L 56.289321 77.746360 L 54.754826 79.439415 L 53.393668 81.274723 L 52.218957 83.234611 L 51.242004 85.300203 L 50.640815 86.980414 L 1.000000 1.000000 z" style="opacity:1;fill:#0c0786;fill-opacity:0.25;fill-rule:evenodd;stroke:#808080;stroke-width:2px;stroke-linecap:round;stroke-linejoin:round;stroke-opacity:1"/>
    <path d="M 27.907573 16.535095 L 74.735647 16.535095 L 77.541810 18.915946 L 80.675766 21.084989 L 84.007234 22.936406 L 87.504131 24.452366 L 91.132780 25.618271 L 94.858234 26.422892 L 98.644616 26.858480 L 102.455461 26.920841 L 106.254068 26.609373 L 110.003854 25.927076 L 113.668707 24.880521 L 117.213333 23.479788 L 120.603594 21.738365 L 123.806842 19.673024 L 126.792225 17.303655 L 127.586357 16.535095 L 150.429003 16.535095 L 150.429003 49.364613 L 106.351980 74.812494 L 105.045927 72.633478 L 102.775506 69.572169 L 100.215956 66.748142 L 97.391929 64.188592 L 94.330620 61.918171 L 91.061512 59.958743 L 87.616088 58.329178 L 84.027529 57.045172 L 80.330396 56.119088 L 76.560293 55.559846 L 72.753529 55.372832 L 68.946765 55.559846 L 65.176663 56.119088 L 61.479529 57.045172 L 57.890971 58.329178 L 54.445547 59.958743 L 53.355455 60.612119 L 27.907573 16.535095 z" style="opacity:1;fill:#cb4777;fill-opacity:0.25;fill-rule:evenodd;stroke:#808080;stroke-width:2px;stroke-linecap:round;stroke-linejoin:round;stroke-opacity:1"/>
    <path d="M 54.815147 32.070190 L 69.250161 32.070190 L 71.834741 33.859004 L 73.129385 34.664065 L 76.460854 36.515482 L 77.828174 37.189770 L 81.325071 38.705730 L 82.751899 39.242750 L 86.380548 40.408655 L 87.853142 40.803236 L 91.578596 41.607857 L 93.082776 41.856198 L 96.869158 42.291786 L 98.390435 42.391496 L 102.201280 42.453856 L 103.725006 42.403974 L 107.523613 42.092506 L 109.035112 41.893514 L 112.784898 41.211217 L 114.269614 40.865030 L 117.934468 39.818475 L 119.378102 39.328427 L 122.922728 37.927693 L 124.311378 37.298504 L 127.701640 35.557081 L 129.021932 34.794811 L 132.225179 32.729469 L 133.145203 32.070190 L 134.893908 32.070190 L 134.893908 40.395422 L 110.079846 54.721827 L 107.824661 52.677846 L 106.646174 51.710687 L 103.584865 49.440266 L 102.317255 48.593275 L 99.048147 46.633847 L 97.703621 45.915183 L 94.258197 44.285619 L 92.849704 43.702202 L 89.261145 42.418195 L 87.802249 41.975644 L 84.105116 41.049561 L 82.609868 40.752137 L 78.839765 40.192895 L 77.322564 40.043464 L 73.515800 39.856450 L 71.991258 39.856450 L 68.184494 40.043464 L 66.667294 40.192895 L 62.897191 40.752137 L 61.401943 41.049561 L 60.176597 41.356494 L 54.815147 32.070190 z" style="opacity:1;fill:#eff821;fill-opacity:0.25;fill-rule:evenodd;stroke:#808080;stroke-width:2px;stroke-linecap:round;stroke-linejoin:round;stroke-opacity:1"/></svg>
