
<svg width="100.000000" height="100.000000">
    <path d="M 99.000000 90.833333 L 98.378350 93.958581 L 96.608039 96.608039 L 93.958581 98.378350 L 90.833333 99.000000 L 9.166667 99.000000 L 6.041419 98.378350 L 3.391961 96.608039 L 1.621650 93.958581 L 1.000000 90.833333 L 1.000000 9.166667 L 1.621650 6.041419 L 3.391961 3.391961 L 6.041419 1.621650 L 9.166667 1.000000 L 90.833333 1.000000 L 93.958581 1.621650 L 96.608039 3.391961 L 98.378350 6.041419 L 99.000000 9.166667 L 99.000000 90.833333 z M 62.240151 50.000000 L 62.181211 48.800255 L 62.004960 47.612065 L 61.713094 46.446872 L 61.308425 45.315897 L 60.794849 44.230033 L 60.177314 43.199736 L 59.461765 42.234930 L 58.655094 41.344906 L 57.765070 40.538235 L 56.800264 39.822686 L 55.769967 39.205151 L 54.684103 38.691575 L 53.553128 38.286906 L 52.387935 37.995040 L 51.199745 37.818789 L 50.000000 37.759849 L 48.800255 37.818789 L 47.612065 37.995040 L 46.446872 38.286906 L 45.315897 38.691575 L 44.230033 39.205151 L 43.199736 39.822686 L 42.234930 40.538235 L 41.344906 41.344906 L 40.538235 42.234930 L 39.822686 43.199736 L 39.205151 44.230033 L 38.691575 45.315897 L 38.286906 46.446872 L 37.995040 47.612065 L 37.818789 48.800255 L 37.759849 50.000000 L 37.818789 51.199745 L 37.995040 52.387935 L 38.286906 53.553128 L 38.691575 54.684103 L 39.205151 55.769967 L 39.822686 56.800264 L 40.538235 57.765070 L 41.344906 58.655094 L 42.234930 59.461765 L 43.199736 60.177314 L 44.230033 60.794849 L 45.315897 61.308425 L 46.446872 61.713094 L 47.612065 62.004960 L 48.800255 62.181211 L 50.000000 62.240151 L 51.199745 62.181211 L 52.387935 62.004960 L 53.553128 61.713094 L 54.684103 61.308425 L 55.769967 60.794849 L 56.800264 60.177314 L 57.765070 59.461765 L 58.655094 58.655094 L 59.461765 57.765070 L 60.177314 56.800264 L 60.794849 55.769967 L 61.308425 54.684103 L 61.713094 53.553128 L 62.004960 52.387935 L 62.181211 51.199745 L 62.240151 50.000000 z" style="opacity:1;fill:#0c0786;fill-opacity:0.25;fill-rule:evenodd;stroke:#808080;stroke-width:2px;stroke-linecap:round;stroke-linejoin:round;stroke-opacity:1"/>
    <path d="M 90.833333 90.833333 L 9.166667 90.833333 L 9.166667 9.166667 L 90.833333 9.166667 L 90.833333 90.833333 z M 70.416667 50.000000 L 70.416667 50.000000 L 70.318355 47.998817 L 70.024366 46.016906 L 69.537532 44.073355 L 68.862540 42.186880 L 68.005892 40.375650 L 66.975838 38.657108 L 65.782297 37.047804 L 64.436763 35.563237 L 62.952196 34.217703 L 61.342892 33.024162 L 59.624350 31.994108 L 57.813120 31.137460 L 55.926645 30.462468 L 53.983094 29.975634 L 52.001183 29.681645 L 50.000000 29.583333 L 47.998817 29.681645 L 46.016906 29.975634 L 44.073355 30.462468 L 42.186880 31.137460 L 40.375650 31.994108 L 38.657108 33.024162 L 37.047804 34.217703 L 35.563237 35.563237 L 34.217703 37.047804 L 33.024162 38.657108 L 31.994108 40.375650 L 31.137460 42.186880 L 30.462468 44.073355 L 29.975634 46.016906 L 29.681645 47.998817 L 29.583333 50.000000 L 29.681645 52.001183 L 29.975634 53.983094 L 30.462468 55.926645 L 31.137460 57.813120 L 31.994108 59.624350 L 33.024162 61.342892 L 34.217703 62.952196 L 35.563237 64.436763 L 37.047804 65.782297 L 38.657108 66.975838 L 40.375650 68.005892 L 42.186880 68.862540 L 44.073355 69.537532 L 46.016906 70.024366 L 47.998817 70.318355 L 50.000000 70.416667 L 52.001183 70.318355 L 53.983094 70.024366 L 55.926645 69.537532 L 57.813120 68.862540 L 59.624350 68.005892 L 61.342892 66.975838 L 62.952196 65.782297 L 64.436763 64.436763 L 65.782297 62.952196 L 66.975838 61.342892 L 68.005892 59.624350 L 68.862540 57.813120 L 69.537532 55.926645 L 70.024366 53.983094 L 70.318355 52.001183 L 70.416667 50.000000 z" style="opacity:1;fill:#cb4777;fill-opacity:0.25;fill-rule:evenodd;stroke:#808080;stroke-width:2px;stroke-linecap:round;stroke-linejoin:round;stroke-opacity:1"/>
    <path d="M 82.666667 82.666667 L 17.333333 82.666667 L 17.333333 17.333333 L 82.666667 17.333333 L 82.666667 82.666667 z M 78.573496 50.400719 L 78.583333 50.000000 L 78.573496 49.599281 L 78.475184 47.598097 L 78.396630 46.800518 L 78.102641 44.818607 L 77.946288 44.032568 L 77.459454 42.089016 L 77.226808 41.322087 L 76.551817 39.435613 L 76.245120 38.695180 L 75.388472 36.883950 L 75.010676 36.177144 L 73.980622 34.458602 L 73.535366 33.792230 L 72.341825 32.182926 L 71.833398 31.563406 L 70.487864 30.078838 L 69.921162 29.512136 L 68.436594 28.166602 L 67.817074 27.658175 L 66.207770 26.464634 L 65.541398 26.019378 L 63.822856 24.989324 L 63.116050 24.611528 L 61.304820 23.754880 L 60.564387 23.448183 L 58.677913 22.773192 L 57.910984 22.540546 L 55.967432 22.053712 L 55.181393 21.897359 L 53.199482 21.603370 L 52.401903 21.524816 L 50.400719 21.426504 L 49.599281 21.426504 L 47.598097 21.524816 L 46.800518 21.603370 L 44.818607 21.897359 L 44.032568 22.053712 L 42.089016 22.540546 L 41.322087 22.773192 L 39.435613 23.448183 L 38.695180 23.754880 L 36.883950 24.611528 L 36.177144 24.989324 L 34.458602 26.019378 L 33.792230 26.464634 L 32.182926 27.658175 L 31.563406 28.166602 L 30.078838 29.512136 L 29.512136 30.078838 L 28.166602 31.563406 L 27.658175 32.182926 L 26.464634 33.792230 L 26.019378 34.458602 L 24.989324 36.177144 L 24.611528 36.883950 L 23.754880 38.695180 L 23.448183 39.435613 L 22.773192 41.322087 L 22.540546 42.089016 L 22.053712 44.032568 L 21.897359 44.818607 L 21.603370 46.800518 L 21.524816 47.598097 L 21.426504 49.599281 L 21.426504 50.400719 L 21.524816 52.401903 L 21.603370 53.199482 L 21.897359 55.181393 L 22.053712 55.967432 L 22.540546 57.910984 L 22.773192 58.677913 L 23.448183 60.564387 L 23.754880 61.304820 L 24.611528 63.116050 L 24.989324 63.822856 L 26.019378 65.541398 L 26.464634 66.207770 L 27.658175 67.817074 L 28.166602 68.436594 L 29.512136 69.921162 L 30.078838 70.487864 L 31.563406 71.833398 L 32.182926 72.341825 L 33.792230 73.535366 L 34.458602 73.980622 L 36.177144 75.010676 L 36.883950 75.388472 L 38.695180 76.245120 L 39.435613 76.551817 L 41.322087 77.226808 L 42.089016 77.459454 L 44.032568 77.946288 L 44.818607 78.102641 L 46.800518 78.396630 L 47.598097 78.475184 L 49.599281 78.573496 L 50.400719 78.573496 L 52.401903 78.475184 L 53.199482 78.396630 L 55.181393 78.102641 L 55.967432 77.946288 L 57.910984 77.459454 L 58.677913 77.226808 L 60.564387 76.551817 L 61.304820 76.245120 L 63.116050 75.388472 L 63.822856 75.010676 L 65.541398 73.980622 L 66.207770 73.535366 L 67.817074 72.341825 L 68.436594 71.833398 L 69.921162 70.487864 L 70.487864 69.921162 L 71.833398 68.436594 L 72.341825 67.817074 L 73.535366 66.207770 L 73.980622 65.541398 L 75.010676 63.822856 L 75.388472 63.116050 L 76.245120 61.304820 L 76.551817 60.564387 L 77.226808 58.677913 L 77.459454 57.910984 L 77.946288 55.967432 L 78.102641 55.181393 L 78.396630 53.199482 L 78.475184 52.401903 L 78.573496 50.400719 z" style="opacity:1;fill:#eff821;fill-opacity:0.25;fill-rule:evenodd;stroke:#808080;stroke-width:2px;stroke-linecap:round;stroke-linejoin:round;stroke-opacity:1"/></svg>
