
<svg width="100.000000" height="100.000000">
    <path d="M 99.000000 90.833333 L 98.378350 93.958581 L 96.608039 96.608039 L 93.958581 98.378350 L 90.833333 99.000000 L 9.166667 99.000000 L 6.041419 98.378350 L 3.391961 96.608039 L 1.621650 93.958581 L 1.000000 90.833333 L 1.000000 9.166667 L 1.621650 6.041419 L 3.391961 3.391961 L 6.041419 1.621650 L 9.166667 1.000000 L 90.833333 1.000000 L 93.958581 1.621650 L 96.608039 3.391961 L 98.378350 6.041419 L 99.000000 9.166667 L 99.000000 90.833333 z M 62.240151 50.000000 L 62.181211 48.800255 L 62.004960 47.612065 L 61.713094 46.446872 L 61.308425 45.315897 L 60.794849 44.230033 L 60.177314 43.199736 L 59.461765 42.234930 L 58.655094 41.344906 L 57.765070 40.538235 L 56.800264 39.822686 L 55.769967 39.205151 L 54.684103 38.691575 L 53.553128 38.286906 L 52.387935 37.995040 L 51.199745 37.818789 L 50.000000 37.759849 L 48.800255 37.818789 L 47.612065 37.995040 L 46.446872 38.286906 L 45.315897 38.691575 L 44.230033 39.205151 L 43.199736 39.822686 L 42.234930 40.538235 L 41.344906 41.344906 L 40.538235 42.234930 L 39.822686 43.199736 L 39.205151 44.230033 L 38.691575 45.315897 L 38.286906 46.446872 L 37.995040 47.612065 L 37.818789 48.800255 L 37.759849 50.000000 L 37.818789 51.199745 L 37.995040 52.387935 L 38.286906 53.553128 L 38.691575 54.684103 L 39.205151 55.769967 L 39.822686 56.800264 L 40.538235 57.765070 L 41.344906 58.655094 L 42.234930 59.461765 L 43.199736 60.177314 L 44.230033 60.794849 L 45.315897 61.308425 L 46.446872 61.713094 L 47.612065 62.004960 L 48.800255 62.181211 L 50.000000 62.240151 L 51.199745 62.181211 L 52.387935 62.004960 L 53.553128 61.713094 L 54.684103 61.308425 L 55.769967 60.794849 L 56.800264 60.177314 L 57.765070 59.461765 L 58.655094 58.655094 L 59.461765 57.765070 L 60.177314 56.800264 L 60.794849 55.769967 L 61.308425 54.684103 L 61.713094 53.553128 L 62.004960 52.387935 L 62.181211 51.199745 L 62.240151 50.000000 z" style="opacity:1;fill:#00FF00;fill-opacity:1;fill-rule:evenodd;stroke:#808080;stroke-width:2px;stroke-linecap:round;stroke-linejoin:round;stroke-opacity:1"/></svg>
