
<svg width="100.000000" height="100.000000">
    <path d="M 99.000000 99.000000 L 1.000000 99.000000 L 1.000000 1.000000 L 99.000000 1.000000 L 99.000000 99.000000 z M 92.860244 50.601079 L 92.875000 50.000000 L 92.860244 49.398921 L 92.712777 46.397146 L 92.594945 45.200777 L 92.153961 42.227911 L 91.919432 41.048852 L 91.189181 38.133525 L 90.840213 36.983131 L 89.827725 34.153419 L 89.367680 33.042770 L 88.082708 30.325925 L 87.516014 29.265716 L 85.970932 26.687903 L 85.303049 25.688345 L 83.512737 23.274389 L 82.750096 22.345108 L 80.731796 20.118258 L 79.881742 19.268204 L 77.654892 17.249904 L 76.725611 16.487263 L 74.311655 14.696951 L 73.312097 14.029068 L 70.734284 12.483986 L 69.674075 11.917292 L 66.957230 10.632320 L 65.846581 10.172275 L 63.016869 9.159787 L 61.866475 8.810819 L 58.951148 8.080568 L 57.772089 7.846039 L 54.799223 7.405055 L 53.602854 7.287223 L 50.601079 7.139756 L 49.398921 7.139756 L 46.397146 7.287223 L 45.200777 7.405055 L 42.227911 7.846039 L 41.048852 8.080568 L 38.133525 8.810819 L 36.983131 9.159787 L 34.153419 10.172275 L 33.042770 10.632320 L 30.325925 11.917292 L 29.265716 12.483986 L 26.687903 14.029068 L 25.688345 14.696951 L 23.274389 16.487263 L 22.345108 17.249904 L 20.118258 19.268204 L 19.268204 20.118258 L 17.249904 22.345108 L 16.487263 23.274389 L 14.696951 25.688345 L 14.029068 26.687903 L 12.483986 29.265716 L 11.917292 30.325925 L 10.632320 33.042770 L 10.172275 34.153419 L 9.159787 36.983131 L 8.810819 38.133525 L 8.080568 41.048852 L 7.846039 42.227911 L 7.405055 45.200777 L 7.287223 46.397146 L 7.139756 49.398921 L 7.139756 50.601079 L 7.287223 53.602854 L 7.405055 54.799223 L 7.846039 57.772089 L 8.080568 58.951148 L 8.810819 61.866475 L 9.159787 63.016869 L 10.172275 65.846581 L 10.632320 66.957230 L 11.917292 69.674075 L 12.483986 70.734284 L 14.029068 73.312097 L 14.696951 74.311655 L 16.487263 76.725611 L 17.249904 77.654892 L 19.268204 79.881742 L 20.118258 80.731796 L 22.345108 82.750096 L 23.274389 83.512737 L 25.688345 85.303049 L 26.687903 85.970932 L 29.265716 87.516014 L 30.325925 88.082708 L 33.042770 89.367680 L 34.153419 89.827725 L 36.983131 90.840213 L 38.133525 91.189181 L 41.048852 91.919432 L 42.227911 92.153961 L 45.200777 92.594945 L 46.397146 92.712777 L 49.398921 92.860244 L 50.601079 92.860244 L 53.602854 92.712777 L 54.799223 92.594945 L 57.772089 92.153961 L 58.951148 91.919432 L 61.866475 91.189181 L 63.016869 90.840213 L 65.846581 89.827725 L 66.957230 89.367680 L 69.674075 88.082708 L 70.734284 87.516014 L 73.312097 85.970932 L 74.311655 85.303049 L 76.725611 83.512737 L 77.654892 82.750096 L 79.881742 80.731796 L 80.731796 79.881742 L 82.750096 77.654892 L 83.512737 76.725611 L 85.303049 74.311655 L 85.970932 73.312097 L 87.516014 70.734284 L 88.082708 69.674075 L 89.367680 66.957230 L 89.827725 65.846581 L 90.840213 63.016869 L 91.189181 61.866475 L 91.919432 58.951148 L 92.153961 57.772089 L 92.594945 54.799223 L 92.712777 53.602854 L 92.860244 50.601079 z" style="opacity:1;fill:#00FF00;fill-opacity:1;fill-rule:evenodd;stroke:#808080;stroke-width:2px;stroke-linecap:round;stroke-linejoin:round;stroke-opacity:1"/></svg>
