
<svg width="100.000000" height="100.000000">
    <path d="M 99.000000 50.000000 L 98.764052 54.802840 L 98.058479 59.559426 L 96.890076 64.223949 L 95.270097 68.751488 L 93.214142 73.098440 L 90.742011 77.222941 L 87.877512 81.085271 L 84.648232 84.648232 L 81.085271 87.877512 L 77.222941 90.742011 L 73.098440 93.214142 L 68.751488 95.270097 L 64.223949 96.890076 L 59.559426 98.058479 L 54.802840 98.764052 L 50.000000 99.000000 L 45.197160 98.764052 L 40.440574 98.058479 L 35.776051 96.890076 L 31.248512 95.270097 L 26.901560 93.214142 L 22.777059 90.742011 L 18.914729 87.877512 L 15.351768 84.648232 L 12.122488 81.085271 L 9.257989 77.222941 L 6.785858 73.098440 L 4.729903 68.751488 L 3.109924 64.223949 L 1.941521 59.559426 L 1.235948 54.802840 L 1.000000 50.000000 L 1.235948 45.197160 L 1.941521 40.440574 L 3.109924 35.776051 L 4.729903 31.248512 L 6.785858 26.901560 L 9.257989 22.777059 L 12.122488 18.914729 L 15.351768 15.351768 L 18.914729 12.122488 L 22.777059 9.257989 L 26.901560 6.785858 L 31.248512 4.729903 L 35.776051 3.109924 L 40.440574 1.941521 L 45.197160 1.235948 L 50.000000 1.000000 L 54.802840 1.235948 L 59.559426 1.941521 L 64.223949 3.109924 L 68.751488 4.729903 L 73.098440 6.785858 L 77.222941 9.257989 L 81.085271 12.122488 L 84.648232 15.351768 L 87.877512 18.914729 L 90.742011 22.777059 L 93.214142 26.901560 L 95.270097 31.248512 L 96.890076 35.776051 L 98.058479 40.440574 L 98.764052 45.197160 L 99.000000 50.000000 L 99.000000 50.000000 z" style="opacity:1;fill:#00FF00;fill-opacity:1;fill-rule:evenodd;stroke:#808080;stroke-width:2px;stroke-linecap:round;stroke-linejoin:round;stroke-opacity:1"/></svg>
