
<svg width="76.273138" height="100.000000">
    <path d="M 36.429011 71.990753 L 36.447908 71.915314 L 36.550322 71.224897 L 36.584569 70.527766 L 36.550322 69.830635 L 36.447908 69.140218 L 36.278315 68.463164 L 36.043175 67.805993 L 35.744754 67.175034 L 35.385925 66.576364 L 34.970144 66.015748 L 34.501415 65.498585 L 33.984252 65.029856 L 33.423636 64.614075 L 32.824966 64.255246 L 32.194007 63.956825 L 31.536836 63.721685 L 30.859782 63.552092 L 30.169365 63.449678 L 29.472234 63.415431 L 28.775103 63.449678 L 28.084686 63.552092 L 27.407632 63.721685 L 26.750461 63.956825 L 26.119502 64.255246 L 25.520832 64.614075 L 24.960216 65.029856 L 24.443053 65.498585 L 23.974324 66.015748 L 23.558543 66.576364 L 23.199714 67.175034 L 22.901293 67.805993 L 22.717653 68.319233 L 25.362621 72.900452 L 26.583434 74.292523 L 28.244041 75.111444 L 30.091629 75.232541 L 31.844920 74.637379 L 36.429011 71.990753 z" style="opacity:1;fill:#0c0786;fill-opacity:0.25;fill-rule:evenodd;stroke:#808080;stroke-width:2px;stroke-linecap:round;stroke-linejoin:round;stroke-opacity:1"/>
    <path d="M 44.069700 42.055532 L 53.199095 42.055532 L 55.015071 42.416752 L 56.554580 43.445420 L 57.583248 44.984929 L 57.944468 46.800905 L 57.944468 59.568798 L 72.941050 50.910518 L 74.333120 49.689704 L 75.152041 48.029097 L 75.273138 46.181509 L 74.677976 44.428218 L 50.951115 3.332089 L 49.730302 1.940018 L 48.069695 1.121097 L 46.222107 1.000000 L 44.468816 1.595162 L 3.372686 25.322024 L 1.980615 26.542837 L 1.161695 28.203444 L 1.040597 30.051032 L 1.635759 31.804323 L 7.554298 42.055532 L 32.244410 42.055532 L 31.997405 41.672438 L 31.678499 41.051581 L 31.421983 40.402456 L 31.230328 39.731313 L 31.105379 39.044617 L 31.048340 38.348980 L 31.059760 37.651102 L 31.139529 36.957703 L 31.286879 36.275463 L 31.500391 35.610950 L 31.778008 34.970565 L 32.117057 34.360475 L 32.514273 33.786555 L 32.965830 33.254333 L 33.467379 32.768934 L 34.014091 32.335032 L 34.600700 31.956807 L 35.221557 31.637901 L 35.870683 31.381386 L 36.541825 31.189731 L 37.228522 31.064782 L 37.924159 31.007743 L 38.622037 31.019163 L 39.315435 31.098932 L 39.997676 31.246282 L 40.662188 31.459794 L 41.302573 31.737411 L 41.912664 32.076460 L 42.486583 32.473675 L 43.018806 32.925232 L 43.504205 33.426782 L 43.938106 33.973494 L 44.316331 34.560103 L 44.635237 35.180960 L 44.891753 35.830085 L 45.083408 36.501228 L 45.208356 37.187925 L 45.265395 37.883561 L 45.253975 38.581440 L 45.174206 39.274838 L 45.026856 39.957078 L 44.813345 40.621591 L 44.535728 41.261976 L 44.196679 41.872066 L 44.069700 42.055532 z" style="opacity:1;fill:#0c0786;fill-opacity:0.25;fill-rule:evenodd;stroke:#808080;stroke-width:2px;stroke-linecap:round;stroke-linejoin:round;stroke-opacity:1"/>
    <path d="M 44.069700 42.055532 L 32.244410 42.055532 L 32.375630 42.259047 L 32.809531 42.805759 L 33.294930 43.307309 L 33.827152 43.758866 L 34.401072 44.156081 L 35.011162 44.495130 L 35.651547 44.772748 L 36.316060 44.986259 L 36.998301 45.133609 L 37.691699 45.213378 L 38.389577 45.224798 L 39.085214 45.167759 L 39.771910 45.042810 L 40.443053 44.851155 L 41.092179 44.594640 L 41.713036 44.275734 L 42.299645 43.897509 L 42.846357 43.463608 L 43.347906 42.978208 L 43.799463 42.445986 L 44.069700 42.055532 z" style="opacity:1;fill:#0c0786;fill-opacity:0.25;fill-rule:evenodd;stroke:#808080;stroke-width:2px;stroke-linecap:round;stroke-linejoin:round;stroke-opacity:1"/>
    <path d="M 22.717653 68.319233 L 7.554298 42.055532 L 5.745372 42.055532 L 3.929397 42.416752 L 2.389887 43.445420 L 1.361220 44.984929 L 1.000000 46.800905 L 1.000000 94.254628 L 1.361220 96.070603 L 2.389887 97.610113 L 3.929397 98.638780 L 5.745372 99.000000 L 53.199095 99.000000 L 55.015071 98.638780 L 56.554580 97.610113 L 57.583248 96.070603 L 57.944468 94.254628 L 57.944468 59.568798 L 36.429011 71.990753 L 36.278315 72.592368 L 36.043175 73.249539 L 35.744754 73.880498 L 35.385925 74.479168 L 34.970144 75.039784 L 34.501415 75.556947 L 33.984252 76.025676 L 33.423636 76.441457 L 32.824966 76.800286 L 32.194007 77.098707 L 31.536836 77.333847 L 30.859782 77.503440 L 30.169365 77.605854 L 29.472234 77.640102 L 28.775103 77.605854 L 28.084686 77.503440 L 27.407632 77.333847 L 26.750461 77.098707 L 26.119502 76.800286 L 25.520832 76.441457 L 24.960216 76.025676 L 24.443053 75.556947 L 23.974324 75.039784 L 23.558543 74.479168 L 23.199714 73.880498 L 22.901293 73.249539 L 22.666153 72.592368 L 22.496560 71.915314 L 22.394146 71.224897 L 22.359898 70.527766 L 22.394146 69.830635 L 22.496560 69.140218 L 22.666153 68.463164 L 22.717653 68.319233 z" style="opacity:1;fill:#0c0786;fill-opacity:0.25;fill-rule:evenodd;stroke:#808080;stroke-width:2px;stroke-linecap:round;stroke-linejoin:round;stroke-opacity:1"/>
    <path d="M 39.735265 64.602403 L 39.336316 63.936797 L 38.642790 63.001685 L 37.860946 62.139054 L 36.998315 61.357210 L 36.063203 60.663684 L 35.064616 60.065154 L 34.012172 59.567385 L 32.916006 59.175171 L 31.786674 58.892288 L 30.635053 58.721461 L 29.472234 58.664335 L 28.309414 58.721461 L 27.157793 58.892288 L 26.028462 59.175171 L 24.932295 59.567385 L 23.879851 60.065154 L 23.546870 60.264735 L 29.472234 70.527766 L 39.735265 64.602403 z" style="opacity:1;fill:#cb4777;fill-opacity:0.25;fill-rule:evenodd;stroke:#808080;stroke-width:2px;stroke-linecap:round;stroke-linejoin:round;stroke-opacity:1"/>
    <path d="M 46.221548 46.800905 L 53.199095 46.800905 L 53.199095 56.829056 L 70.568363 46.800905 L 46.841502 5.704775 L 5.745372 29.431637 L 15.773524 46.800905 L 30.077694 46.800905 L 30.047118 46.774962 L 29.237468 45.938374 L 28.513718 45.026454 L 27.882835 44.047986 L 27.350898 43.012392 L 26.923028 41.929645 L 26.603346 40.810174 L 26.394930 39.664759 L 26.299789 38.504431 L 26.318838 37.340365 L 26.451893 36.183771 L 26.697674 35.045789 L 27.053813 33.937377 L 27.516880 32.869209 L 28.082417 31.851574 L 28.744975 30.894272 L 29.498176 30.006521 L 30.334764 29.196871 L 31.246684 28.473120 L 32.225153 27.842238 L 33.260747 27.310301 L 34.343493 26.882431 L 35.462964 26.562748 L 36.608379 26.354333 L 37.768707 26.259192 L 38.932773 26.278240 L 40.089367 26.411296 L 41.227350 26.657076 L 42.335762 27.013215 L 43.403929 27.476283 L 44.421564 28.041819 L 45.378867 28.704378 L 46.266618 29.457579 L 47.076267 30.294167 L 47.800018 31.206087 L 48.430900 32.184555 L 48.430900 32.184555 L 48.962838 33.220149 L 49.390708 34.302896 L 49.710390 35.422367 L 49.918805 36.567782 L 50.013947 37.728110 L 49.994898 38.892176 L 49.861843 40.048770 L 49.616062 41.186752 L 49.259923 42.295165 L 48.796856 43.363332 L 48.231319 44.380967 L 47.568760 45.338270 L 46.815560 46.226021 L 46.221548 46.800905 z" style="opacity:1;fill:#cb4777;fill-opacity:0.25;fill-rule:evenodd;stroke:#808080;stroke-width:2px;stroke-linecap:round;stroke-linejoin:round;stroke-opacity:1"/>
    <path d="M 46.221548 46.800905 L 30.077694 46.800905 L 30.934869 47.528163 L 31.892172 48.190722 L 32.909807 48.756258 L 33.977974 49.219326 L 35.086386 49.575465 L 36.224369 49.821245 L 37.380962 49.954301 L 38.545028 49.973350 L 39.705356 49.878208 L 40.850771 49.669793 L 41.970243 49.350111 L 43.052989 48.922240 L 44.088583 48.390303 L 45.067052 47.759421 L 45.978971 47.035670 L 46.221548 46.800905 z" style="opacity:1;fill:#cb4777;fill-opacity:0.25;fill-rule:evenodd;stroke:#808080;stroke-width:2px;stroke-linecap:round;stroke-linejoin:round;stroke-opacity:1"/>
    <path d="M 23.546870 60.264735 L 15.773524 46.800905 L 5.745372 46.800905 L 5.745372 94.254628 L 53.199095 94.254628 L 53.199095 56.829056 L 39.735265 64.602403 L 39.934846 64.935384 L 40.432615 65.987828 L 40.824829 67.083994 L 41.107712 68.213326 L 41.278539 69.364947 L 41.335665 70.527766 L 41.335665 70.527766 L 41.278539 71.690586 L 41.107712 72.842207 L 40.824829 73.971538 L 40.432615 75.067705 L 39.934846 76.120149 L 39.336316 77.118735 L 38.642790 78.053847 L 37.860946 78.916479 L 36.998315 79.698322 L 36.063203 80.391848 L 35.064616 80.990378 L 34.012172 81.488147 L 32.916006 81.880362 L 31.786674 82.163244 L 30.635053 82.334071 L 29.472234 82.391197 L 28.309414 82.334071 L 27.157793 82.163244 L 26.028462 81.880362 L 24.932295 81.488147 L 23.879851 80.990378 L 22.881265 80.391848 L 21.946153 79.698322 L 21.083521 78.916479 L 20.301678 78.053847 L 19.608152 77.118735 L 19.009622 76.120149 L 18.511853 75.067705 L 18.119638 73.971538 L 17.836756 72.842207 L 17.665929 71.690586 L 17.608803 70.527766 L 17.665929 69.364947 L 17.836756 68.213326 L 18.119638 67.083994 L 18.511853 65.987828 L 19.009622 64.935384 L 19.608152 63.936797 L 20.301678 63.001685 L 21.083521 62.139054 L 21.946153 61.357210 L 22.881265 60.663684 L 23.546870 60.264735 z" style="opacity:1;fill:#cb4777;fill-opacity:0.25;fill-rule:evenodd;stroke:#808080;stroke-width:2px;stroke-linecap:round;stroke-linejoin:round;stroke-opacity:1"/>
    <path d="M 47.919561 51.546277 L 48.453723 51.546277 L 48.453723 54.089314 L 64.086064 45.063978 L 45.104575 12.187074 L 12.227671 31.168563 L 23.992750 51.546277 L 28.402090 51.546277 L 28.234277 51.430132 L 27.864821 51.146638 L 26.977070 50.393438 L 26.637181 50.075097 L 25.827531 49.238508 L 25.520481 48.888385 L 24.796730 47.976465 L 24.525477 47.597932 L 23.894595 46.619463 L 23.661751 46.216165 L 23.129813 45.180571 L 22.937620 44.756392 L 22.509750 43.673645 L 22.360059 43.232671 L 22.040377 42.113199 L 21.934630 41.659676 L 21.726215 40.514261 L 21.665430 40.052556 L 21.570289 38.892228 L 21.555052 38.426789 L 21.574101 37.262723 L 21.604558 36.798031 L 21.737613 35.641437 L 21.813472 35.181968 L 22.059253 34.043986 L 22.179782 33.594165 L 22.535921 32.485753 L 22.699960 32.049912 L 23.163027 30.981745 L 23.368996 30.564081 L 23.934533 29.546446 L 24.180448 29.150982 L 24.843007 28.193679 L 25.126500 27.824224 L 25.879701 26.936473 L 26.198042 26.596583 L 27.034630 25.786934 L 27.384754 25.479884 L 28.296673 24.756133 L 28.675207 24.484880 L 29.653675 23.853998 L 30.056974 23.621153 L 31.092568 23.089216 L 31.516747 22.897023 L 32.599493 22.469153 L 33.040468 22.319462 L 34.159939 21.999780 L 34.613463 21.894033 L 35.758878 21.685618 L 36.220583 21.624833 L 37.380910 21.529691 L 37.846350 21.514455 L 39.010416 21.533503 L 39.475108 21.563961 L 40.631701 21.697016 L 41.091170 21.772875 L 42.229153 22.018655 L 42.678973 22.139185 L 43.787386 22.495324 L 44.223227 22.659362 L 45.291394 23.122430 L 45.709057 23.328399 L 46.726692 23.893935 L 47.122156 24.139850 L 48.079459 24.802409 L 48.448915 25.085903 L 49.336666 25.839103 L 49.676555 26.157444 L 50.486205 26.994033 L 50.793255 27.344156 L 51.517006 28.256076 L 51.788259 28.634609 L 52.419141 29.613078 L 52.540513 29.811869 L 52.651985 30.016376 L 53.183923 31.051970 L 53.376116 31.476149 L 53.803986 32.558896 L 53.953677 32.999871 L 54.273359 34.119342 L 54.379106 34.572865 L 54.587521 35.718280 L 54.648306 36.179985 L 54.743447 37.340313 L 54.758684 37.805753 L 54.739635 38.969819 L 54.709178 39.434510 L 54.576122 40.591104 L 54.500264 41.050573 L 54.254483 42.188555 L 54.133954 42.638376 L 53.777815 43.746788 L 53.613776 44.182629 L 53.150709 45.250796 L 52.944740 45.668460 L 52.379203 46.686095 L 52.133288 47.081559 L 51.470729 48.038862 L 51.187236 48.408317 L 50.434035 49.296068 L 50.115694 49.635958 L 49.279106 50.445607 L 48.928982 50.752657 L 48.017063 51.476408 L 47.919561 51.546277 z" style="opacity:1;fill:#eff821;fill-opacity:0.25;fill-rule:evenodd;stroke:#808080;stroke-width:2px;stroke-linecap:round;stroke-linejoin:round;stroke-opacity:1"/>
    <path d="M 47.919561 51.546277 L 28.402090 51.546277 L 29.191579 52.092691 L 29.587043 52.338606 L 30.604678 52.904142 L 31.022342 53.110111 L 32.090509 53.573179 L 32.526350 53.737218 L 33.634762 54.093357 L 34.084583 54.213886 L 35.222566 54.459666 L 35.682035 54.535525 L 36.838628 54.668580 L 37.303320 54.699038 L 38.467386 54.718087 L 38.932825 54.702850 L 40.093153 54.607708 L 40.554858 54.546924 L 41.700273 54.338508 L 42.153797 54.232761 L 43.273268 53.913079 L 43.714243 53.763389 L 44.796989 53.335518 L 45.221168 53.143325 L 46.256762 52.611388 L 46.660061 52.378544 L 47.638529 51.747662 L 47.919561 51.546277 z" style="opacity:1;fill:#eff821;fill-opacity:0.25;fill-rule:evenodd;stroke:#808080;stroke-width:2px;stroke-linecap:round;stroke-linejoin:round;stroke-opacity:1"/>
    <path d="M 40.873984 58.465479 L 40.185112 57.841121 L 39.825130 57.545691 L 38.890018 56.852165 L 38.502812 56.593442 L 37.504225 55.994913 L 37.093524 55.775389 L 36.041080 55.277620 L 35.610840 55.099408 L 34.514674 54.707194 L 34.069037 54.572011 L 32.939706 54.289128 L 32.482965 54.198277 L 31.331344 54.027450 L 30.867898 53.981805 L 29.705078 53.924679 L 29.239389 53.924679 L 28.076570 53.981805 L 27.613124 54.027450 L 26.461503 54.198277 L 26.004762 54.289128 L 25.630466 54.382885 L 31.209161 64.045467 L 40.873984 58.465479 z" style="opacity:1;fill:#eff821;fill-opacity:0.25;fill-rule:evenodd;stroke:#808080;stroke-width:2px;stroke-linecap:round;stroke-linejoin:round;stroke-opacity:1"/>
    <path d="M 25.630466 54.382885 L 23.992750 51.546277 L 10.490745 51.546277 L 10.490745 89.509255 L 48.453723 89.509255 L 48.453723 54.089314 L 40.873984 58.465479 L 41.047743 58.622965 L 41.377035 58.952257 L 42.158879 59.814888 L 42.454309 60.174870 L 43.147835 61.109982 L 43.406558 61.497188 L 44.005087 62.495775 L 44.224611 62.906476 L 44.722380 63.958920 L 44.900592 64.389160 L 45.292806 65.485326 L 45.427989 65.930963 L 45.710872 67.060294 L 45.801723 67.517035 L 45.972550 68.668656 L 46.018195 69.132102 L 46.075321 70.294922 L 46.081037 70.527766 L 46.075321 70.760611 L 46.018195 71.923430 L 45.972550 72.386876 L 45.801723 73.538497 L 45.710872 73.995238 L 45.427989 75.124570 L 45.292806 75.570206 L 44.900592 76.666372 L 44.722380 77.096613 L 44.224611 78.149057 L 44.005087 78.559758 L 43.406558 79.558344 L 43.147835 79.945550 L 42.454309 80.880662 L 42.158879 81.240644 L 41.377035 82.103276 L 41.047743 82.432567 L 40.185112 83.214411 L 39.825130 83.509841 L 38.890018 84.203367 L 38.502812 84.462090 L 37.504225 85.060620 L 37.093524 85.280144 L 36.041080 85.777913 L 35.610840 85.956124 L 34.514674 86.348339 L 34.069037 86.483521 L 32.939706 86.766404 L 32.482965 86.857255 L 31.331344 87.028082 L 30.867898 87.073728 L 29.705078 87.130853 L 29.239389 87.130853 L 28.076570 87.073728 L 27.613124 87.028082 L 26.461503 86.857255 L 26.004762 86.766404 L 24.875430 86.483521 L 24.429794 86.348339 L 23.333628 85.956124 L 22.903387 85.777913 L 21.850943 85.280144 L 21.440242 85.060620 L 20.441656 84.462090 L 20.054450 84.203367 L 19.119338 83.509841 L 18.759356 83.214411 L 17.896724 82.432567 L 17.567433 82.103276 L 16.785589 81.240644 L 16.490159 80.880662 L 15.796633 79.945550 L 15.537910 79.558344 L 14.939380 78.559758 L 14.719856 78.149057 L 14.222087 77.096613 L 14.043876 76.666372 L 13.651661 75.570206 L 13.516479 75.124570 L 13.233596 73.995238 L 13.142745 73.538497 L 12.971918 72.386876 L 12.926272 71.923430 L 12.869147 70.760611 L 12.869147 70.294922 L 12.926272 69.132102 L 12.971918 68.668656 L 13.142745 67.517035 L 13.233596 67.060294 L 13.516479 65.930963 L 13.651661 65.485326 L 14.043876 64.389160 L 14.222087 63.958920 L 14.719856 62.906476 L 14.939380 62.495775 L 15.537910 61.497188 L 15.796633 61.109982 L 16.490159 60.174870 L 16.785589 59.814888 L 17.567433 58.952257 L 17.896724 58.622965 L 18.759356 57.841121 L 19.119338 57.545691 L 20.054450 56.852165 L 20.441656 56.593442 L 21.440242 55.994913 L 21.850943 55.775389 L 22.903387 55.277620 L 23.333628 55.099408 L 24.429794 54.707194 L 24.875430 54.572011 L 25.630466 54.382885 z" style="opacity:1;fill:#eff821;fill-opacity:0.25;fill-rule:evenodd;stroke:#808080;stroke-width:2px;stroke-linecap:round;stroke-linejoin:round;stroke-opacity:1"/></svg>
